<?xml version="1.0" encoding="UTF-8" standalone="no"?>
<svg xmlns:dc="http://purl.org/dc/elements/1.1/" xmlns:cc="http://creativecommons.org/ns#" xmlns:rdf="http://www.w3.org/1999/02/22-rdf-syntax-ns#" xmlns:svg="http://www.w3.org/2000/svg" xmlns="http://www.w3.org/2000/svg" xmlns:sodipodi="http://sodipodi.sourceforge.net/DTD/sodipodi-0.dtd" xmlns:inkscape="http://www.inkscape.org/namespaces/inkscape" width="1000.6345" height="682.94873" id="svg2" version="1.1" inkscape:version="0.91 r13725" sodipodi:docname="Flag_of_Iceland.svg">
  <metadata id="metadata14">
    <rdf:RDF>
      <cc:Work rdf:about="">
        <dc:format>image/svg+xml</dc:format>
        <dc:type rdf:resource="http://purl.org/dc/dcmitype/StillImage"/>
        <dc:title/>
      </cc:Work>
    </rdf:RDF>
  </metadata>
  <defs id="defs12"/>
  <sodipodi:namedview pagecolor="#ffffff" bordercolor="#666666" borderopacity="1" objecttolerance="10" gridtolerance="10" guidetolerance="10" inkscape:pageopacity="0" inkscape:pageshadow="2" inkscape:window-width="1600" inkscape:window-height="837" id="namedview10" showgrid="false" fit-margin-top="0" fit-margin-left="0" fit-margin-right="0" fit-margin-bottom="0" inkscape:zoom="0.63" inkscape:cx="487.96114" inkscape:cy="350.92554" inkscape:window-x="-8" inkscape:window-y="-8" inkscape:window-maximized="1" inkscape:current-layer="svg2"/>
  <path style="fill:#003897" d="m 590.69922,0 -0.91211,0.257813 0.54297,2.05664 -1.34961,0.574219 0.38672,1.449219 -0.14453,1.294922 1.66211,1.21289 1.16211,1.4375 0.71874,-0.05078 0.95508,-2.738281 -0.27539,-1.980469 -1.05273,-1.96875 L 590.69922,1e-6 Z m 166.19336,6.066407 -0.51172,0.07227 -0.91016,1.324219 -1.65625,5.542969 -1.3457,0.919922 -0.64063,-2.251953 0.72852,-0.841797 -0.39258,-0.07813 -0.96875,-0.189454 -0.70508,1.220704 0.3125,0.982422 -0.73046,2.648437 -0.91797,0.1875 0.30468,0.841797 1.2461,0.132812 -0.0723,0.523438 -1.95703,0.140625 -1.08594,0.861328 -1.31054,-0.318359 -1.95508,0.09375 -0.19531,-0.705078 2.45898,-0.355469 0.73242,-0.746094 -2.3125,0.205078 -1.90234,-0.716797 -0.36133,-1.791015 -0.2832,-0.53125 -1.05078,-1.970703 -0.94141,-0.191407 0.27344,2.03125 -0.94336,-0.191406 -0.86719,-1.572266 -0.99219,1.570313 -2.37695,0.876953 -0.2793,1.158203 0.95899,1.660156 0.2207,1.083985 -1.38477,-0.691407 -0.26953,-1.080078 -0.0644,-1.339843 -0.21094,-0.691407 0.60742,-1.980468 -0.7246,-2.626954 -1.29493,-0.03125 -4.01367,2.105469 -1.06445,2.908203 0.2168,0.986328 -0.50977,2.03125 -1.25195,-1.230468 0.70117,-1.222656 -0.33789,-3.027344 -0.80469,-0.431641 -1.12695,0.150391 -0.1875,0.478515 -0.88867,2.240235 -1.42579,2.021484 -0.85546,2.044922 0.79101,1.099609 2.19531,1.265625 -0.0723,3.046875 1.09179,1.845703 2.25196,5.685547 -1.41602,1.259766 0.5586,2.345703 0.47461,1.976563 -0.75782,1.941406 1.38086,2.449219 -0.74804,2.939453 0.70312,1.435547 1.625,0.537109 0.7793,1.005859 -0.23828,4.623047 1.55273,1.966797 -0.0566,0.763672 1.55859,1.203125 0.60743,2.041016 0.2871,0.958984 1.29688,2.072266 0.084,1.375 -1.00781,2.046875 -0.11719,3.240234 -1.4082,3.019531 -1.4043,1.306641 -0.28906,0.298828 -0.78125,4.080078 -1.63281,3.460938 -1.20703,-0.556641 -3.97461,2.632815 0.78906,1.24218 -0.14258,0.19727 -2.08008,0.1543 -1.55078,1.12109 -1.07812,-0.74219 -1.82617,0.99805 -1.57617,0.084 0.12304,-0.48046 6.03125,-2.31641 0.58985,-1.21875 5.87304,-3.347656 -0.0937,-0.707032 -0.13281,0.05859 -5.43359,2.462891 -3.28907,2.978517 -3.26953,0.79102 -7.08398,3.2832 0.15039,0.80274 2.01953,-1.15821 1.70508,-0.42578 -0.71289,0.79883 -0.6836,1.32227 0.40039,0.6914 -1.49218,1.36524 -2.70899,-0.13868 -1.78906,1.52539 -0.16016,3.09961 -0.57031,2.22071 -0.4043,0.0703 -0.40234,-2.6875 -0.12695,-0.84961 -2.03125,-1.45703 4.55078,-2.15234 0.91601,-0.8125 -0.68945,-0.4375 -3.90039,1.9746 -2.9668,0.66407 -6.76562,1.59765 -2.85352,0.0215 -0.49023,0.37304 -0.11133,1.2793 -0.75781,0.0898 0.12695,1.13476 1.94531,0.93555 -0.9707,0.7207 -1.45312,-0.4375 -1.46875,0.13477 0.31836,-2.875 -0.8418,-1.14063 2.00976,-0.40039 -1.62304,-0.66602 0.0879,-3.23828 -1.89649,-1.65234 -0.60156,-2.10352 0.19336,-3.912109 -1.85352,-3.220703 -2.9414,-2.072266 -0.97852,-0.693359 -3.125,0.615234 -1.44922,-0.24414 -1.29296,-0.207032 -0.95704,0.402344 -0.8789,0.375 -2.32227,-1.048828 -0.36133,0.6875 0.71094,1.384766 -0.79101,1.095703 -1.32618,0.746094 -0.8125,0.04883 -2.4414,-1.275391 -1.87891,0.878906 -1.70508,1.867188 -0.37695,1.11914 -1.67578,0.816413 -1.27539,2.1289 0.15625,2.13086 1.25195,1.06055 -0.0547,0.89844 -0.0156,0.25 -0.82813,1.9082 0.41211,1.32422 0.38477,1.24218 -2.75391,2.74415 -1.08008,1.92382 -4.42578,0.71289 -0.34961,0.78321 1.28125,1.486329 -0.58789,0.99023 -1.47656,0.66797 0.67578,1.57422 -0.79687,2.24023 1.625,2.75 -0.4336,0.98047 -2.82031,3.03516 -0.27344,1.77929 0.72852,0.95313 -1.94141,2.5039 -1.38672,2.47071 1.52539,1.79883 0.19727,0.23046 -0.25,0.0156 0.10937,1.4707 0.10743,1.46485 -0.59375,1.32422 -0.44922,-0.39649 0.23633,-1.58789 -0.47071,-2.20312 -1.20508,-1.20704 -0.31835,-2.21484 -3.21289,1.11524 -3.03516,0.0625 -2.58984,0.5332 -1.80665,-0.33399 -3.29101,0.0352 -2.32227,-0.50781 -0.16992,0.40039 0.51563,0.45117 -0.90235,0.21289 -0.20117,0.18359 -1.46875,-1.18945 -1.05664,-1.83008 -1.3125,-1.19531 -0.81641,-0.70117 -1.05664,-5.5918 -1.51953,-1.22656 -0.70898,-1.85547 -0.88867,-0.9375 -0.52149,-1.43945 -1.0957,-0.97071 -1.5625,-2.31445 -5.14453,-3.158199 -0.79102,-0.94336 -0.38086,-1.54492 -0.0605,-0.0586 -1.10547,-1.09375 -3.19141,0.23047 -0.79883,-0.41797 -0.58203,-0.24414 -2.05078,-2.56445 -0.0703,-2.66211 -2.49805,-1.19922 -2.12305,-1.55664 -1.8789,-0.48047 -1.25,-1.47851 -3.73633,0.51562 -1.23633,1.04492 -3.46484,1.26172 -0.92188,-1.21484 0.92188,-1.1211 -0.4668,-0.67773 -2.52734,-1.42773 -1.36914,0.10546 -0.49415,0.75196 0.0645,1.32812 -0.52539,0.37891 -1.84766,-2.95899 -1.83203,-1.05078 -2.51172,0.48047 -2.64844,-1.0332 -1.69922,0.57031 -0.88085,0.29883 -1.76563,-0.29102 -1.34961,1.44141 -2.1582,3.78906 -0.25,1.73633 0.66406,4.47461 -0.34961,1.74219 1.36328,6.562499 0.0488,2.63281 0.0293,1.59961 1.33203,2.89648 0.90234,3.21485 -0.14258,2.91601 3.27149,6.45703 4.12305,5.8711 0.22656,0.89844 0.24414,0.9707 -1.63867,2.08008 0.6289,1.38086 -0.25195,0.0195 2.58008,2.8457 0.49414,1.01172 1.71094,0.48437 0.82617,-0.39843 -0.2168,-1.88672 0.7793,-0.91797 0.73828,-0.24609 0.26367,0.6914 -0.76367,1.10742 1.54297,0.88086 0.87695,2.69336 0.22852,0.69922 0.96875,0.11524 1.08203,-0.36719 -0.73828,2.58008 1.42968,2.50976 0.36133,3.01953 1.75391,2.77149 -0.75391,2.39062 0.24414,1.64844 1.29102,0.94922 -1.24024,0.23633 -0.52343,0.94726 0.32617,2.02149 -0.3086,1.54297 -1.57617,2.88671 -0.80859,2.29883 0.4043,4.11328 -0.6836,3.14649 0.61524,2.47656 1.72265,2.53516 2.32617,7.18945 0.33204,1.0332 -0.0625,3.38867 -0.82618,0.86915 -1.09375,2.53125 -0.59179,-1.73438 -1.11524,-1.34375 0.0859,-3.67187 -0.33789,-1.5918 0.41992,-2.12891 -1.49609,-1.64453 -2.42578,-2.5293 -0.97461,-1.96875 -2.2461,-2.16015 -0.18554,-1.5586 0.49609,-2.37109 -0.0644,-3.04297 0.8164,-1.58594 -1.18359,-3.76757 -2.19922,-3.25586 -0.67578,-3.66211 0.14062,-4.10742 -0.46874,-2.16602 -0.21094,-0.97266 -2.72071,-1.64257 -1.30078,0.15039 -1.3457,-0.94141 -1.25586,-7.23633 -1.76367,-1.62109 -2.09375,-5.2168 -1.7832,-1.8125 -1.64063,-0.20117 -2.49609,-0.70313 -2.66993,0.74024 -3.11914,-1.9375 -1.64453,-1.86719 -3.07617,-0.36719 -1.29687,-0.33007 -1.25391,-0.36329 -0.74414,-0.89062 1.60547,-7.94531 0.0918,-0.43946 0.0156,-3.57422 -0.98242,-1.77734 -0.26563,-3.36328 -0.79687,-3.55469 -1.53906,-2.779289 -1.36329,-0.93555 -1.58203,-0.0117 -6.52929,3.205079 -0.37891,-0.33594 0.68555,-2.392579 3.89648,-3.54883 0.5625,-2.54492 -5.64258,-7.6289 -1.88672,-0.98633 -3.19921,0.22656 -2.51954,0.88086 -1.53125,2.08789 -1.07617,3.04883 -1.05273,-0.16602 -0.45703,-0.66015 0.0371,-1.14453 2.67187,-7.05079 -0.002,-1.57031 -2.42969,-2.271484 -2.05859,-0.63086 -3.84375,-0.52539 -0.17383,0.302734 0.94531,2.253906 -0.29101,1.69336 -1.97657,1.699224 0.43555,0.77148 -0.0176,1.33594 -3.22851,3.95703 -1.10547,0.19141 1.32031,-2.59571 -0.50195,-2.43359 0.40039,-1.08594 -0.11914,-2.181641 -0.97266,-1.009766 -1.93359,-0.880859 -2.39649,0.117187 -2.02734,1.183594 -2.35156,2.500005 -2.2793,1.19922 -0.33984,0.17968 -2.97852,3.32227 -1.10156,4.07422 -0.5918,2.18554 -0.63672,4.63672 1.79297,0.55078 1.16602,4.330079 2.34375,3.41211 -3.92774,-1.98047 -1.76367,-3.22656 -2.23633,-0.890619 1.53711,-0.90625 0.25781,-0.92774 -4.01171,0.6543 0.82031,1.976559 -0.29297,1.55274 -0.9961,0.71093 -1.25195,0.21094 -2.25586,-2.50781 -1.52148,0.0918 -1.09571,-1.185539 -2.92773,1.705079 -1.61133,0.19726 -1.01953,-0.47461 -0.9043,0.13281 -2.44921,0.47071 -1.08985,-0.18164 -0.90234,0.60937 -1.99219,-0.95508 -0.7832,0.3125 -0.95899,1.95313 -3.8457,2.56445 -1.96094,2.5293 0.0937,2.23242 0.84571,2.11328 1.10937,1.27539 1.23242,2.41211 0.20899,2.36524 -0.76563,1.36132 -2.3789,1.47266 -0.0215,-0.1875 -4.30859,1.46875 -0.44727,1.9043 -0.55469,0.96094 0.0742,2.4746 1.6211,1.79688 1.9414,1.05273 1.26172,2.05469 1.0293,1.6836 -0.0176,1.67187 1.22852,2.54102 1.40234,1.11523 0.0137,1.52539 0.62695,2.46875 2.44336,5.25195 0.58594,2.40821 -1.37695,2.86718 0.32422,6.21875 -1.4043,2.85547 -1.5,6.58789 0.36719,1.96875 0.0996,0.4668 -1.01172,-0.0449 0.13476,0.55859 -1.27734,0.0312 -0.65234,1.39844 -0.2793,-0.25781 -0.37891,-0.25 -0.62304,0.29883 -0.45313,-0.47852 1.02735,-2.10547 2.17382,-2.2168 -0.74414,-0.35546 -3.53125,2.25195 -1.95703,-1.33399 -0.86719,-2.82226 -1.18554,-1.60156 -1.19336,-0.31055 -1.10938,1.34961 0.78711,4.06641 0.0391,0.19531 -0.12695,0.78515 -1.20117,0.72266 -0.75195,-0.29883 0.27929,-0.64844 -0.49023,-1.24023 -1.63281,0.25977 -1.16016,-0.45899 -2.75976,0.0859 -1.9336,-2.10742 -0.47851,-0.51172 -0.27539,-1.54688 -0.2461,-6.61132 -0.38086,-1.58399 -1.07617,-1.03711 -0.43164,-2.55273 -0.22465,-1.32413 0,107.88867 537.21484,0 0.76563,-0.52539 0.33398,-1.04688 1.65625,-1.67773 -0.55664,-1.36914 -1.14453,-0.98633 -3.20703,-0.20312 -2.04102,-1.64063 -3.4121,-0.76562 -0.45704,-1.08594 0.17969,-0.54492 0.20117,-0.59766 0.88086,-0.43945 6.125,0.59765 0.83594,-0.19922 1.49023,0.74415 1.76368,-1.15625 2.16992,-0.0215 1.66015,-1.76953 -0.30859,-1.18359 1.79102,-3.8125 -2.04688,-1.88086 1.1543,-1.04883 2.32617,-2.11328 0.0703,-2.84766 -0.95117,-1.13086 0.53516,-1.04883 -0.21094,-1.37304 -0.99805,-0.89453 -0.0586,-0.9004 0.83398,-0.86328 2.61524,-0.96875 0.43945,-0.66797 -0.12305,-8.30468 -0.66796,-0.77344 -3.19727,-3.70312 -0.64844,-0.0898 -0.83203,1.00586 -0.29883,0.002 0.51172,-3.51562 -1.21094,-1.60352 -0.89648,-0.18164 -2.38086,0.4043 -0.85156,-0.5625 -2.05078,3.29687 -0.83399,0.86133 -0.82031,2.05078 -1.38281,0.63086 -1.80274,-1.26172 -0.50976,-0.99023 0.36523,-6.59961 -0.96289,-1.41406 -1.69726,-0.55078 -0.79493,0.19922 -0.95507,-0.74805 -1.68165,0.63672 -0.60351,-0.41992 -0.26367,-1.13282 2.57422,-0.98242 0.56445,-2.42578 -0.4707,-1.8457 -0.20313,-0.18946 -1.91601,-1.77929 -4.38868,-0.22852 -3.0625,1.79492 -1.76758,1.73242 -0.99609,-0.24023 -2.91601,-1.50781 -3.20118,-0.75977 -5.17382,-2.24609 -12.13868,-8.4082 -1.20898,-0.85743 -0.0586,-0.51953 -0.0586,-0.42773 -4.74609,-2.47461 -4.09375,-4.33789 -1.21485,-2.86914 -0.70507,-0.27149 -0.33985,0.48047 0.69532,2.02735 -1.15821,-0.35743 -0.23633,-1.60742 0.75,-2.19922 1.96875,-2.46484 0.61329,-0.76758 1.66796,-4.01953 -0.0801,-1.32617 1.31835,-1.6875 -0.24804,-2.22656 -0.51172,-0.46289 -1.86133,-0.20313 -3.24219,0.86914 -2.11914,-0.47851 -1.33398,0.88085 -2.55078,0.33789 -2.61328,1.85938 -0.40235,0.16016 -5.16015,2.05273 -2.24219,0.61914 -5.05664,0.16602 -1.93164,0.89843 -1.07617,0.92969 -0.008,-0.28515 -2.00586,0.0488 -6.50781,3.67578 -0.01,-0.23632 -3.23243,0.79492 -2.2207,2.0332 -0.96484,0.23633 -0.92383,-0.73437 -1.66797,-2.14063 1.67188,-2.89258 0.27929,-0.48437 0.0312,-0.71289 3.97852,-4.42579 1.91015,-3.32617 -0.2207,-0.70507 -1.0918,0.4082 -7.74023,7.89844 -1.32813,0.79492 -1.11523,-0.44336 -0.83984,-1.16211 1.3164,-1.17774 1.95313,-0.10156 1.40429,-1.60547 1.61719,-1.27734 -0.15039,-1.65625 0.79492,-0.30664 0.0937,-1.85547 0.44336,-0.29688 1.39649,1.43555 0.13867,-0.47851 -0.80274,-1.68946 -0.01,-1.94531 1.35351,-3.23242 0.61719,-1.47266 0.82813,-0.92187 3.53125,-1.37305 0.6289,-0.82422 0.24805,-1.95312 0.67188,-1.10938 5.80468,-4.98437 2.7793,-5.33594 0.42383,-2.0625 1.27343,-6.19336 -0.125,-3.79492 -0.14062,-4.27149 -3.35938,-2.62695 -1.29687,-6.66211 -0.42578,-0.75 -1.26953,-1.91601 -1.53711,-0.53321 -3.4043,-1.95703 -1.56641,0.18164 -4.92578,3.21485 -0.91015,1.73242 -0.27344,1.42969 -0.11914,0.62304 -1.73242,1.42188 -3.14649,0.76562 -0.80273,-0.75195 -1.41797,-3.19141 -1.45117,-0.95898 -3.38086,0.42969 -2.13086,-0.082 -1.7832,-0.91796 -1.54102,-0.78907 -0.69922,-0.35937 -1.47461,-0.0527 -3.25781,1.09375 -0.92969,-0.49218 0.41406,-1.20118 2.2793,-3.10742 -0.15234,-1.61133 -0.25,-2.650389 0.52344,-1.06054 -0.0801,-0.85352 -2.89649,0.0391 -2.66797,0.69922 -1.93164,-0.0898 -0.50976,-0.0254 -0.97266,-1.58399 -1.75,-1.00976 -0.42969,-0.25 0.17383,-2.14258 3.25,-2.99805 3.44141,-0.53515 3.16211,-1.23438 0.88086,-0.75 1.68945,-1.51172 1.7168,-0.43164 1.21289,-1.74218 0.79883,-0.64063 3.88086,-3.111328 0.48437,-0.388672 1.50977,-2.128906 0.57812,-2.677735 -0.89062,-3.822265 -1.04688,-1.4375 -1.29297,-3.009766 -2.6289,-2.15625 -0.59375,-0.197266 -1.88868,-0.632812 0.20508,-1.478516 1.6836,-0.890625 0.8789,-0.466797 1.2168,-1.933593 3.36328,-1.853516 4.06836,-1.013672 1.3457,-1.128906 0.72461,0.21875 1.30469,-0.890625 1.42969,-0.177734 2.11718,-2.765625 1.95899,-1.378907 2.13477,-0.667968 0.50585,-0.160157 0.69336,-0.824218 2.79297,-0.923829 2.37305,-1.341796 1.99219,-0.330078 4.66992,-1.869141 1.25195,-1.119141 2.04883,-0.238281 2.38477,-1.001953 2.1914,-2.708984 -0.41992,-0.320313 -2.88477,1.048828 -1.13671,0.414063 -4.16407,-0.140625 -4.30273,2.236328 -4.95899,0.740234 -2.4414,-0.982422 -4.2461,-2.888672 -1.68164,-1.138671 -1.86718,-0.56836 -1.58985,0.08789 -5.83984,2.25 -2.5625,1.636719 -1.44141,1.466796 -0.88086,1.355469 -1.02929,0.632813 -1.27149,2.615234 -0.875,2.923828 -2.10742,1.294922 -0.49414,2.058594 -1.57813,1.802734 -1.89257,1.482422 -1.44532,-0.289062 -0.33789,0.535156 1.07227,1.390625 -1.79883,2.666015 -1.5918,0.539063 -1.49218,0.505859 -4.06446,0.746094 -4.40234,1.234375 -3.01172,0.332031 -2.50586,-1.480468 -0.92187,-0.01758 -2.05274,1.115235 -0.96875,2.509765 -0.51367,1.341797 0.81445,2.53711 0.0899,3.560546 1.57617,3.697266 -1.51953,4.185544 -3.47852,2.16016 1.63086,0.041 -0.13672,2.94726 -1.22656,1.27539 -0.64648,-1.01953 0.084,-1.61523 -2.74219,-1.24805 -2.54687,-4.744142 -1.31836,-1.044922 -0.67969,-0.451172 0.008,0.189453 -1.89258,-0.11914 -1.46289,-0.804688 -0.50781,-0.996093 -2.16406,-4.226563 -0.72266,-0.164063 0.10547,1.28125 -2.07617,-0.779296 -1.00586,0.332031 -0.0625,-2.619141 -0.65625,-0.974609 -0.77148,-0.111328 -0.48438,0.634765 -0.96484,0.08398 -1.31055,1.570312 -1.08398,-0.24414 -1.16407,-0.904297 -3.59375,0.708984 -0.14062,-0.220703 -1.07422,-1.726563 0.41797,-3.154296 0.73437,-1.833985 0.25586,-0.0098 -0.27734,-1.556641 -1.41016,-0.609375 -1.58398,1.107422 -0.82813,0.230469 -2.21093,-3.910157 -0.82227,-0.0625 -0.13867,1.384766 -2.48242,-2.013672 0.76562,-0.720703 2.36133,0.140625 4.375,-4.021484 2.58203,-6.326172 -1.19726,-4.800782 0.2246,-2.953124 0.68165,-0.835938 -0.51758,-1.419922 -1.49219,-2.017578 -0.14258,-0.849609 -2.74804,-0.132813 -6.86133,-1.763672 -1.26758,1.431641 -1.25,-1.251953 0.5332,-1.855469 0.74414,-0.554687 -0.0391,-0.804688 -2.0625,0.451172 -1.92187,1.28125 -0.82618,-0.109375 0.20118,-2.146485 -0.89454,-0.388671 -0.70507,0.3125 -1.00586,1.988281 -1.25,-0.751953 -0.74805,0.507812 -0.45117,-1.835937 1.30078,-1.765625 -0.74805,-0.539063 -1.92187,-0.298828 1.19336,-1.902344 -0.27735,-1.416015 1.36328,-0.580078 -1.30468,-1.275391 0.82226,-2.125 1.06055,-0.474609 0.0664,-1.759766 2.25585,-0.333984 -1.24023,-1.039063 -1.46094,-0.320312 0.23047,-0.207032 0.6582,-0.589843 -1.39648,-0.03516 -0.72461,-1.0625 -1.31445,-0.466796 -0.76953,0.146484 0.69922,-1.521484 -0.57227,-1.070313 -0.9668,0.279297 -0.0488,1.09375 -0.47265,-0.167969 -0.3086,-1.984375 -2.50585,-1.458984 -1.05079,-2.330078 -0.62695,-0.07031 -1.19922,1.765625 -2.07031,-0.0039 -0.33399,0.537109 1.47461,1.503907 -1.0039,-0.07031 -1.48633,-0.105469 -0.64258,-1.396484 -2.10156,-0.570313 -1.04688,-1.189453 -3.37304,-0.179687 -0.01,-0.189453 -1.25,0.818359 -0.93359,-0.05469 -0.3125,-0.982422 z m -20.0957,5 -0.25196,1.011718 0.36133,-0.01758 0.46875,-0.832031 -0.57812,-0.162109 z m -586.23047,8.457031 -2.17383,0.416015 -1.02735,0.03711 -2.39843,0.08398 -0.85742,0.462891 0.28906,1.351562 1.44531,0.796875 1.24219,1.449219 1.63476,0.09766 1.8418,2.181641 2.64062,2.302734 -0.29687,1.292969 -0.31445,1.490235 -0.9375,-0.0078 -1.35547,-2.396484 0.55859,-1.285157 -2.06836,-2.003906 -1.95703,-0.140625 -1.0625,-0.710937 -1.6582,1.542968 -2.13477,0.31836 -2.24218,-0.291016 -2.76954,0.269531 -0.70507,0.730469 -0.0449,0.632813 1.48438,3.154297 0.18555,0.394531 -0.16407,0.552734 -1.05468,-0.658203 -1.19922,-2.078125 -4.93164,-3.398437 -3.12696,1.195312 -0.21289,0.558594 4.39258,5.351562 1.92773,2.933594 2.22071,0.0098 0.67969,0.0059 1.22656,0.951172 -0.2207,3.253906 -0.11133,1.65625 -3.42578,2.099609 -1.45118,1.738282 -1.50586,0.05664 -2.89648,-1.96875 -1.41797,-0.07422 -2.4082,-1.558594 -1.5,-0.31836 -0.33985,-0.07422 -0.56835,1.193359 -0.0762,1.3125 1.58985,2.498047 3.61133,2.769531 5.28906,3.044922 2.51562,1.451172 3.64063,1.521484 2.70117,-0.261718 1.27734,0.482421 1.24024,-0.330078 0.55859,-0.660156 3.22852,-2.019531 1.99023,-0.486328 1.40234,-1.794922 0.45704,-3.048828 6.45507,-3.832031 1.71485,-2.416016 0.30469,-0.04492 -0.1836,1.660156 -0.66992,1.541016 -1.46094,1.05664 -1.95703,1.416016 -0.49414,0.746094 0.64258,0.720703 -0.77344,3.335937 0.31445,0.626954 1.30469,0.335937 2.36914,-0.396484 1.84375,-1.107422 1.54297,-0.925781 2.32031,-2.210938 3.06055,-4.291016 0.87891,-1.855468 7.05468,-0.681641 0.0137,1.007813 -1.93555,1.142578 -2.0625,0.394531 -1.82422,0.886719 -0.35156,0.675781 0.33789,1.023437 -1.74024,4.177735 -2.49414,3.628906 0.2793,1.644531 1.29688,0.626954 1.46484,0.07422 1.45898,1.279297 3.30079,-0.09375 1.67382,0.357422 1.2793,0.275391 1.20508,-0.222657 1.58594,-1.667968 3.74218,-3.033203 1.64258,-2.587891 -0.0332,-2.166016 1.13672,1 1.52734,-0.167969 -0.80078,2.371094 1.9707,1.451172 -1.97265,0.710938 -0.0332,-0.189454 -1.89843,2.289063 -1.63477,1.386719 -2.62109,0.423828 -1.78907,3.232422 6.09766,1.193359 4.14062,0.322266 3.10938,-1.589844 0.13477,-0.06836 2.0625,-0.150391 2.66406,-0.03711 0.24023,0.832031 -0.27734,0.519531 -1.38867,0.310547 -2.10352,0.46875 -3.79883,1.738281 -6.09179,1.298828 -0.72657,1.208985 -2.7832,-1.1875 -0.96875,1.628906 0.14844,0.892578 2.29297,1.974609 0.41797,1.574219 -0.72657,0.919922 -1.3789,-1.146484 -1.04688,-1.626953 -2.03906,-1.386719 0.26367,-1.816406 -2.29101,-1.013672 -1.51368,1.130859 -1.83203,0.169922 -3.23437,-0.15625 -2.42578,-2.720703 -1.29493,-0.916016 -1.39453,-0.902343 -9.0039,1.228515 -1.45508,1.464844 -1.05274,0.205078 -0.57421,0.564453 0.33007,1.007813 0.19727,0.550781 -5.62695,0.06641 -2.12305,1.181641 -0.74023,0.785156 -0.99024,2.9375 2.12305,5.068359 0.71679,0.699219 0.91211,0.892578 1.22852,1.201172 0.68164,1.246097 4.15039,2.84179 1.43164,-0.0703 1.34766,2.44336 0.73047,0.66211 4.10742,-0.0781 2.54101,3.13281 3.18555,-0.65821 1.94922,1.60157 0.67969,0.55859 1.58789,-0.0391 1.31836,1.72851 2.58203,0.0566 2.5332,0.91211 1.2168,0.73243 0.48242,0.28711 0.91211,2.70312 2.78711,0.70117 2.16406,1.898439 2.17969,1.07812 1.51562,0.16602 2.80079,-1.07031 5.00195,-3.017579 1.2207,0.16797 -0.51367,1.652339 -2.46484,1.88477 -2.98633,1.19726 -1.64649,2.1543 0.17188,3.37891 -0.16797,1.03906 -1.10742,0.11133 -0.0742,1.73828 0.75,1.76758 1.27539,0.58398 3.07812,3.49805 1.64844,3.84375 0.62305,2.58594 0.62305,5.39843 1.02148,2.54492 0.41797,1.95704 0.98242,0.38671 0.90234,2.12891 1.24219,1.09961 -1.04883,0.0195 -2.02148,-0.13867 -1.42578,1.59375 -0.084,2.94141 -0.76172,2.84765 -2.17382,3.23828 0.0156,2.30078 -0.50781,0.93946 -1.69922,1.44531 -1.37891,-0.041 -2.07812,4.09375 -3.68945,2.59961 -3.60547,3.40821 -1.11719,-0.0274 5.58203,-5.38476 0.69531,-0.91211 2.59766,-2.15235 2.18359,-5.64453 2.84961,-5.01953 -0.14648,-1.85351 1.24414,-3.63282 -0.93359,-4.25195 -0.24024,-1.10156 -0.6582,1.29297 0.1582,2.85937 0.42774,1.37696 -0.24414,0.99609 -1.55274,1.37305 0.27734,-3.25391 -0.72265,-2.87109 0.93945,-2.68164 -0.38476,-0.8086 -1.70313,-1.67578 -1.25586,-0.49219 -0.11914,0.83399 0.25,-0.0371 0.65625,1.82617 -0.20312,0.31836 -2.36719,-1.67774 -0.38086,-1.38281 0.64844,-1.96875 -0.73829,-2.63086 -0.1621,-0.14258 -1.57032,-1.38281 -0.73632,0.20117 -0.38477,1.06641 0.39648,1.47656 -0.98828,2.06641 0.45313,2.14062 -0.79102,1.70313 -1.81836,1.99219 0.27344,2.89062 -0.88086,3.00781 -1.34375,0.19727 -0.56836,3.97461 -0.33008,0.35156 -1.70507,1.81836 -0.0918,4.04883 -2.14649,4.2539 -0.53515,0.4629 -1.01953,0.0879 -0.4961,-0.34375 1.79883,-2.95508 0.61328,-4.89453 2.23633,-4.02735 0.10742,-2.1289 1.58008,-1.86328 0.29492,-3.45508 0.91016,-1.90821 -0.16992,-7.51757 1.00586,-2.25977 -0.22657,-0.44727 -1.21679,0.0801 -1.05274,-1.42968 -1.45898,-5.69922 -0.8125,-0.88868 -0.17578,0.0352 -1.81055,0.35156 -1.02148,-0.9082 -0.60352,-0.53711 -1.20703,-3.23437 0.20312,-3.05664 -0.44336,-0.50977 -1.49609,2.0918 -1.17383,-0.88477 -1.24414,0.23242 -0.15039,0.8418 -1.80469,-2.0918 -1.67187,-0.47461 -1.99414,9.71289 0.62109,5.19532 -1.38867,4.19531 0.24219,2.16992 0.15234,1.37695 -0.71289,3.03711 -0.91016,1.86524 -1.74023,1.17383 -0.94141,3.79296 -0.5332,0.75391 -0.83008,-0.0234 0.66602,-3.94336 2.26172,-7.44921 0.25976,-6 0.86524,-3.0586 -0.63282,-0.63086 -0.53906,-0.54101 -1.50195,0.51172 -0.0312,-0.1875 -1.85352,2.34179 -1.66406,6.16406 -1.5,1.0918 -0.49414,0.98633 -1.14648,0.17187 -0.77735,0.54883 -1.48437,2.96485 -2.07618,0.70117 -0.38086,1.06445 -1.47656,2.09961 -0.51172,-0.23828 0.48047,-1.72852 2.48633,-2.91992 2.83203,-3.3164 2.02539,-2.80469 2.24414,-5.43164 1.0625,-4.58399 0.7793,-0.83593 -0.58984,-1.35352 -0.25196,-2.07812 -0.65234,-0.81641 -1.15234,-0.74023 0.11523,0.94921 0.15234,1.22266 -0.21289,2.05078 -0.78515,1.70313 -2.96094,3.95507 0.39062,1.96094 0.0625,3.35547 -0.50585,0.0273 -0.57618,-0.9707 -0.57422,-3.03711 0.20118,-1.52344 1.46484,-3.39062 0.0879,-0.9082 0.16992,-1.77735 -1.43359,-2.66797 -0.0606,-1.24023 -0.71094,-1.14453 -0.84961,0.41797 -0.43945,4.00781 -1.21679,2.44531 -1.86524,1.96485 -2.20312,3.26562 -1.35938,1.02344 -1.31445,2.75195 -0.67188,-0.33008 -1.60742,1.63868 -1.3125,-0.1836 3.66406,-4.83789 0.87305,-2.34766 1.37109,-1.55273 1.14844,-0.46484 1.47461,-1.85938 0.44141,-3.67383 0.14453,-7.76172 -0.26953,-0.67382 -0.81055,-2 -2.22266,-1.249999 -1.14453,-2.13672 -1.15234,0.17383 -0.5625,0.61523 -4.01172,4.699219 -5.54102,5.72851 -0.5957,-2.62304 -0.0547,-0.30664 -0.0859,-0.48828 0.33398,-0.4375 3.51367,-1.06836 0.51953,-0.84766 1.02735,-6.746089 -1.40625,-1.85547 -1.08008,-2.91211 -4.42773,-3.17188 -3.39649,-0.82422 -1.28711,0.008 -1.59961,-3.74805 -1.53906,-1.68555 -1.26563,0.14844 -1.10546,-0.984374 -7.57813,-2.189454 -1.17969,0.330079 -6.249997,-1.955079 -1.46875,0.267579 -0.433594,0.08203 -0.59375,2.117187 -0.05469,1.402344 -1.947266,0.117188 -2.908203,0.460937 -0.972656,1.742193 -1.617188,1.02929 -0.458984,0.60352 -0.738281,1.0332 -1.808594,1.10742 -0.271484,1.05664 0.384765,1.23633 0.757813,0.74805 1.710937,-0.51563 1.298828,0.61328 1.253907,-0.20117 1.507812,0.625 1.990234,-0.12304 1.65625,0.3164 2.572266,1.66211 1.808594,3.13281 3.164061,1.97852 3.16602,1.98437 0.1543,1.130859 -0.96875,0.0566 -1.51368,-1.542959 -2.01367,-0.59766 -3.519531,-3.48828 -2.470703,-1.96875 -1.304688,-0.082 -4.203125,-1.54688 -1.478515,0.38086 -1.03125,1.45703 -0.236329,0.33594 -3.742187,0.40625 -1.337891,-0.26758 -1.521484,0.14649 -0.974609,0.59179 -0.25586,1.39258 3.617188,5.339849 3.761719,1.13085 1.466796,1.25782 1.65625,2.57812 0.105469,0.0566 2.351563,1.28321 0.425781,2.05078 0.615234,-0.002 0.185547,-1.52148 0.732422,-0.21289 1.244141,0.61914 3.785156,3.01172 2.880866,2.57812 1.17382,4.53125 2.73438,2.64844 0.60156,0.18555 -0.57617,0.24414 -1.33984,-0.60742 -1.10547,0.12695 -0.68164,-0.66211 -1.11914,-1.07422 -1.52344,-0.77148 0.90625,-0.67188 -0.67774,-3.74414 0.11524,-0.78906 -0.74219,-0.12305 -0.724611,0.25977 -0.800781,1.52344 -2.890625,-2.62305 -7.882813,-1.24609 -2.597656,-1.63086 -3.507813,-2.20313 -2.841796,-0.89062 -3.367188,-0.12696 -0.378906,-0.37304 -0.619198,-0.57242 -4.490234,-1.4375 -0.931641,0.24805 -1.414062,1.53125 -2.927735,5.7832 1.195313,3.08008 -0.06445,1.8418 1.291015,1.95507 1.726563,1.26172 0.976562,1.83789 0.601563,1.12891 2.46875,2.7793 1.90625,0.60546 1.02539,1.66016 4.81836,4.17969 2.480468,1.23633 1.341797,1.17968 0.595703,2.40625 0.984376,1.19141 2.789062,1.25 3.445312,1.55078 2.548829,-0.89062 1.996093,0.5957 1.353516,0.69922 1.302734,1.57031 -0.1875,2.3457 4.253903,0.95704 3.38477,0.0879 3.57031,1.35937 1.64258,0.99609 2.19336,0.57032 2.51953,1.57812 -0.0332,-0.1875 2.42383,-0.13867 2.35352,1.79688 -3.35547,0.043 -1.61133,-0.75781 -1.45312,0.13281 -2.00977,-1.27343 -2.19922,-0.0371 -2.02734,-1.36719 -1.04492,-0.0781 -0.60938,-0.043 -1.23242,0.52929 -3.17578,-1.26562 -2.31641,-0.0742 -2.925776,-1.79688 -3.183594,-3.48437 -1.544922,1.0625 -2,-0.0625 -2.009766,0.46875 -2.482421,1.50781 -4.125,-3.28125 -0.884766,-2.02344 -0.330078,-0.12695 -7.761719,-2.98633 -1.277344,-1.09179 -4.015625,-1.21875 -3.613281,0.93359 -2.080078,0.91992 -1.259766,1.46289 -0.847656,2.02149 -0.208984,2.15625 0.570312,3.03711 2.066406,3.94531 0.248047,1.09765 0.625,2.75782 0.582032,1.20508 3.417968,3.28906 1.449219,1.89062 3.658203,4.78321 1.447266,0.67578 4.046875,-0.13282 -0.04297,-0.23242 5.103516,2.87305 6.314453,2.00781 0.847656,-0.0879 3.490234,-0.83594 3.433594,0.0566 6.031245,0.19141 3.0293,-0.96289 2.92578,-0.0625 2.33985,-0.0488 2.42968,-0.91406 5.65625,-3.39063 1.65821,-0.40234 0.75781,0.70313 1.18945,1.0332 -0.39453,0.76172 -1.57227,0.29492 -2.90234,1.41797 -0.80078,0.9414 0.11719,0.94532 1.875,1.72656 0.4375,-0.0117 -0.8418,1.46875 -5.8457,-0.9082 -5.00391,0.40625 -1.60352,1.55468 -0.15429,0.16993 -0.0996,0.11133 -5.46875,1.20898 -1.722656,-0.83203 -2.888671,-0.25781 -2.126953,1.1621 -2.244141,0.50586 -1.6875,1.33204 0.255859,1.98046 1.970703,1.94532 1.607422,0.75 1.330078,1.75976 0.958985,0.0645 0.529297,0.0312 1.623047,1.71289 1.27539,0.32422 1.81445,-0.0488 1.98828,1.22265 3.01953,-0.67578 1.64258,-1.32031 2.26563,0.50781 1.38867,-0.75 2.42187,-0.62304 1.29883,0.17968 -0.45312,1.17774 -2.29102,0.21679 -1.34375,1.56055 0.082,0.27148 -1.46093,-0.0508 -3.07032,0.67774 -1.5332,1.35351 -2.23047,0.25782 -1.53125,0.77734 0.91602,2.01758 1.93164,2.62695 -0.0879,0.64063 -0.99805,0.41601 -0.50977,0.20899 -1.49218,-0.4336 -4.63672,-3.58789 -0.734376,0.41016 0.410157,3.67773 -0.865235,-0.2832 -0.789062,-2.71484 -0.839844,-0.43946 -1.816406,2.84375 -1.273438,2.75782 -1.279296,1.31445 -1.339844,0.41406 -0.667969,-0.61328 -0.341797,-1.05469 0.578125,-0.71875 -0.375,-2.92383 1.927735,-1.37304 0.382812,-0.6875 -0.697266,-3.01758 -2.628906,-5.01172 -2.205078,1.41406 0.154297,-0.55859 0.445312,-1.60547 -0.234375,-2.12891 -1.710937,-1.30859 -6.126953,-2.99609 -5.621094,-2.10938 -4.697266,-2.5957 -1.257812,0.0644 -1.392578,-0.92383 -3.673828,-3.33984 -2.71875,-0.65625 -1.236328,-0.082 -1.587891,-1.13086 -1.695313,-1.98047 -1.43164,-1.10938 -2.150391,-0.40234 -0.482422,-0.375 -2.339843,-1.80469 -2.279297,-0.19336 -3.617188,-1.84765 -1.570312,0.3164 -1.142579,0.96485 -0.117187,0.98633 -0.992187,1.4707 -0.207032,1.04883 1.527344,2.92383 -0.273438,1.99804 -0.277343,2.05078 1.640625,3.52735 1.660156,2.03125 0.751953,4.50195 3.363281,3.81445 2.953125,2.20118 0.919922,0.25586 2.078125,0.58398 1.373047,0.83008 0.302735,0.52734 2.675781,0.75391 0.537109,0.49804 4.732422,4.39844 0.632812,1.77344 0.861329,-0.81836 3.78125,2.64453 1.957031,3.24414 -1.863281,-0.80273 -1.681641,-1.98438 -7.505859,-3.07812 -2.023438,-2.12696 -0.308594,-0.32421 -1.201171,-0.47071 -2.691407,-0.0273 -1.65625,-0.22461 -3.388672,-0.46094 -4.347656,-1.28515 -0.519531,0.47656 0.251953,1.59375 2.179687,2.66601 3.601563,6.13868 0.05273,0.0859 2.167969,1.25977 0.785156,0.45508 1.488282,2.01172 1.248046,0.99609 0.892579,1.53516 3.675781,3.1875 0.65625,1.9121 1.513672,1.625 1.685547,-0.42773 1.568359,0.84375 1.46875,-0.24609 3.361328,0.125 -0.457031,0.59375 -1.320313,0.21875 -3.478515,2.46484 -1.431641,0.43164 -3.378906,-1.64648 -1.105469,-1.06641 -1.910156,-1.84375 -0.996094,-2.0957 0.105469,-0.79102 -1.025391,-0.88672 -3.345703,-0.6289 -3.929687,-0.73633 -4.148438,-3.01367 -2.367187,-1.2793 -1.47461,-0.79687 -0.208984,-1.36329 -1.765625,-2.63867 -1.431641,-0.86328 -0.933594,-0.14258 -0.623046,-0.0937 -1.259766,-0.1914 -1.958984,-1.49414 -9.080078,-3.72657 -0.722657,0.46289 -0.441406,3.98633 -1.845703,0.41992 -2.667969,3.99219 0.65625,1.60547 0.40625,1.00586 -0.597656,1.60156 0.675781,2.4375 -0.46875,0.65235 -1.242187,1.72656 -3.78711,1.58594 -2.7265622,0.53125 -1.1054688,1.0664 0.1953125,1.51172 -1.1132813,1.78906 -1.8808593,0.72266 -2.95507815,2.16797 -0.11523437,0.27539 L 0,221.70312 l 0.37890625,0.89649 0.93554685,0.3418 3.2480469,1.17968 2.59375,0.11914 3.498047,-0.43164 6.041015,-1.35742 2.089844,0.11524 2.390625,-0.41993 1.660157,0.23829 1.910156,-0.28516 1.257812,-1.33008 1.496094,-0.0508 4.6875,0.46875 1.841797,1.4668 0.294922,0.14648 8.269531,4.11133 4.849609,3.31445 0.417969,-0.45508 -1.816406,-1.9082 1.427734,-0.9668 1.507813,-0.0176 0.476562,0.30664 1.296875,0.83593 3.22461,0.5625 -0.414063,0.74219 -1.015625,0.2207 0.03711,0.72852 0.134765,2.61719 -0.839844,0.625 -2.048828,-2.34766 -0.04102,0.58399 1.873046,2.76562 0.0332,4.76563 0.763672,0.59375 1.671874,-0.18946 2.792969,0.43946 2.566407,1.39648 2.121093,-0.21289 0.580078,-0.23438 1.896485,-0.76171 3.261718,-0.54883 7.232422,-1.06641 0.05078,0.28125 1.570312,-2.14062 0.773438,-3.21289 0.660156,-0.78125 2.279297,-1.29297 1.177734,-4.04688 0.976563,1.23438 0.705078,-0.0371 2.332031,-0.125 2.330078,-1.29883 1.494141,0.47852 2.59375,-0.95508 5.314453,-1.49219 0.03516,0.1875 1.970703,-2.19531 4.263671,-0.64258 0.69726,-1.16992 -0.46484,-0.64844 -1.21484,-0.33203 -1.04883,-0.79297 2.57812,0.0644 -1.15429,-1.97851 0.41601,-0.21094 2.04492,1.88476 0.33008,1.8711 0.90625,1.1543 1.23242,0.57031 0.46485,0.21679 1.89258,0.17579 3.23828,0.97461 6.14453,-0.20704 3.3789,-3.42187 1.04102,-3.28906 -1.99023,-2.76367 -0.18946,-3.16602 2.4375,-5.33008 1.40821,-0.92969 1.44335,-1.57226 0.40821,0.89844 -1.11719,2.0039 0.95703,4.65821 2.21485,0.27929 2.5664,-0.30469 1.27149,0.66602 0.77929,1.60938 4.17578,-0.88672 2.10157,-2.15039 1.79101,-2.85938 0.3086,-0.49414 -0.0176,-1.29687 0.99023,-1.5918 -0.40039,-2.05274 0.86133,-3.25976 0.69727,-0.63672 0.19726,-0.0273 0.83984,4.05273 0.82227,0.98047 0.31445,3.36328 0.54102,1.11914 1.42969,-0.79492 2.58398,-2.60547 1.3457,-0.68555 0.94922,-2.45117 -0.51562,-4.58203 -0.19727,0.0293 0.48242,-1.03125 1.27735,2.49414 2.34375,0.75195 1.58008,1.29688 0.21289,2.17968 -4.75977,4.99805 -0.50195,1.80469 -0.81445,0.84375 -0.54883,1.52734 -1.13477,0.75 0.14453,0.55469 2.17383,0.0527 0.93359,1.00391 -1.69335,0.16797 -0.53516,0.41797 1.74805,1.1289 1.41992,-1.1289 2.16797,-0.28125 3.30859,3.87109 -1.44922,1.56641 0.82031,0.79687 1.42383,-0.89648 3.10742,1.84961 0.0176,-1.16797 -1.0332,-3.32227 -0.0371,-0.11914 0.16797,-3.24414 -1.29492,-4.17773 -0.008,-3.07422 -1.84375,-11.63867 1.0586,-0.0605 1.85937,2.07422 1.41992,0.65234 2.51954,-3.0664 0.87695,0.0117 0.16406,0.79493 -0.5,1.84961 -1.34766,1.93164 -2.09179,4.10742 1.0664,2.48242 -0.004,3.02734 0.375,0.90821 0.1289,0.3125 1.37305,1.62109 0.8125,4.00781 1.02344,1.33594 2.52148,0.0586 0.86524,-0.56054 0.51953,-1.42383 -0.24219,-3.32617 1.8086,-5.55274 -0.78711,-3.80078 -0.66016,-3.1875 0.67383,-2.35547 0.52148,0.11328 0.22266,4.4336 1.125,2.57031 -0.24219,6.51953 0.42773,2.62696 0.89454,1.7871 1.39648,-0.0625 0.11914,-0.12695 1.93164,-2.0957 1.56446,-6.1836 -1.35352,-4.31445 0.66211,-2.74023 -1.20117,-3.66407 0.34765,-0.96289 1.86328,1.83789 0.50782,1.26954 0.008,0.85937 0.0234,3.36523 1.6289,3.21485 0.80664,3.4375 0.10157,1.20703 0.44336,5.29102 -0.53125,1.99609 0.41796,2.29101 0.63672,0.53126 1.67969,0.13867 1.64649,-1.00977 2.04882,-1.93164 1.05274,-0.3418 1.12109,-0.83593 -1.1875,-2.08399 0.01,-1.82422 -1.05664,-1.57422 0.0469,-0.88671 2.49805,2.33984 0.81054,2.85742 1.15235,0.31445 0.67969,-1.10546 0.67968,-0.14649 1.36133,-2.5 2.85742,-1.32422 1.0625,-2.5039 0.66602,-0.23829 0.89453,2.79883 -0.93945,0.42188 -0.75,1.30859 -3.69531,2.35547 0.49609,1.22461 1.11914,1.03906 5.14648,-0.16406 4.46485,-2.26758 1.61718,-1.86133 1.76368,-3.84961 1.43164,-2.33398 1.21484,-1.97266 1.47461,-0.54492 2.03711,-2.44336 1.14258,-0.0449 -1.2168,2.16797 -2.30469,2 -1.0039,1.63086 0.0449,1.91015 -1,2.76172 -0.30078,0.82813 -1.08789,1.40234 -1.80664,0.64063 -0.25391,0.94726 -2.23242,2.42774 -3.08203,0.19922 -2.05078,0.67773 -5,0.76563 -2.15625,1.27343 -2.57618,3.34766 0.0566,1 0.18554,1.79687 1.03906,0.85743 4.91602,1.30664 0.0469,1.23828 0.95507,0.34375 2.7461,1.85937 -0.12305,2.08203 1.19727,-0.65429 0.49804,0.9375 1.47461,-0.16407 0.33399,0.41993 1.10156,1.39062 0.98242,-0.42773 0.52734,0.5 0.97266,-0.18555 2.2207,-2.76367 0.18555,0.21484 0.13672,-1.36328 -0.19531,0.0273 2.20117,-3.57421 2.21289,-2.51953 0.49609,-1.98829 0.89258,-1.03711 0.24805,-4.88086 -0.15235,-0.60156 -0.49218,-1.94336 0.85351,-0.64843 1.16211,0.69921 0.94922,3.56055 1.39648,3.20899 1.3086,1.01757 -0.36328,1.87305 0.13867,1.5625 2.48242,0.18164 -0.0508,-2.63086 0.52539,-1.80078 -0.68945,-2.54102 2.38867,0.53126 1.43945,-1.60352 0.58985,0.12305 0.12109,2.76367 2.86133,5.31054 1.97461,1.50196 0.26367,0.73047 -3.73828,4.06445 0.45312,0.49609 1.17578,-1.29687 2.07422,-0.19141 2.28711,-1.08203 2.10742,-0.0137 1.19141,-0.008 2.5625,0.75 0.67383,0.53711 1.59375,1.26367 1.40039,0.33594 1.48242,-0.44141 4.19336,-3.10742 1.85352,0.37304 1.26171,-0.9375 1.09766,0.82422 0.0293,0.0332 -0.0996,0.0723 -1.89258,1.34375 -2.66406,2.94727 -2.9336,1.78515 -0.41406,0.25196 -0.95703,-0.39844 -8.34961,1.95703 -0.0371,-0.23633 -2.85351,-0.37304 -1.21875,2.18164 -2.08789,1.05468 1.85937,3.32422 -1.12109,0.60352 -2.00196,-3.70313 -0.8125,-0.0801 0.32422,0.81836 0.24219,-0.0332 -0.94141,2.67188 -1.12304,0.82812 -2.41407,0.19336 -0.0293,-0.18945 -1.41211,1.54101 -1.08203,0.10352 -0.55469,1.27734 -4.28516,3.26953 -1.99414,1.3086 -3.03125,3.31836 -2.75586,1.48437 -4.93945,2.19531 -0.5918,0.0156 -1.88672,0.0527 -0.40632,0.37923 74.19727,0 0,-28.41602 -1.85547,0.41602 -0.34765,-0.33594 0.54687,-1.07812 1.65625,-0.75977 0,-22.41015 -0.0137,0.0137 -1.93164,0.875 -0.41211,-0.42578 -0.34961,-0.33789 0.49805,-2.125 1.43164,-1.91211 0.77734,-0.4043 0,-12.20117 -0.66797,-0.29102 -3.00195,-0.56836 -3.18946,1.1836 -1.31054,-0.25977 -2.35742,0.74023 -6.23828,-2.00585 -0.84571,0.0625 -1.61523,-1.9961 0.28125,-1.09375 -0.46485,-0.88867 0.16016,-0.97852 -0.86914,-2.80859 -0.45117,-0.32226 -1.69141,-1.21094 0.57617,-1.56446 0.98828,-0.13086 1.12305,-2.30664 -0.12109,-1.85351 -0.91016,-2.03516 -0.63672,-2.26172 -0.29687,0.0371 -2.16406,-1.96289 -1.66407,-0.64258 -1.54883,-1.90234 -3.24023,-0.33398 0.39063,-0.77149 3.73046,-0.11328 0.5586,-1.50391 0.72461,0.27539 1.43359,1.57813 2.0293,0.93555 0.98828,1.21093 0.54687,2.65821 1.20703,0.99023 0.53321,2.23047 1.71484,1.67578 2.00391,1.95703 1.86523,3.44141 0.23047,0.13867 0.1582,0.0977 1.66797,-1.70313 0.76563,1.09571 2.97851,1.04882 1.9961,-0.49804 2.07031,1.07226 2.5625,-0.33008 0,-14.57031 -1.79102,-0.49023 0.35743,-1.61719 0.95507,-0.74609 0.47852,-0.13086 0,-37.86524 -1.96289,0.82227 -2.67383,-0.51953 -2.98437,0.86328 -1.37891,0.9375 -0.79883,0.54297 -2.99414,0.77343 -0.47461,-2.52734 -0.58008,-0.27148 -0.4082,-0.38477 0.71484,-0.50586 5.4629,-1.33203 3.60351,-1.85156 2.62305,0.14062 1.85156,-1.05078 0,-8.55664 -0.97266,0.24805 -0.6914,0.85547 -2.22266,0.52539 -2.53125,-1.92578 -1.83008,-2.01758 0.32032,-0.95117 -1.41211,-3.31836 1.46289,-0.13868 2.02343,1.22461 0.83204,0.084 0.37109,-0.95703 -0.5332,-2.23242 -0.94532,-1.66993 -1.47851,-2.61718 -0.91406,-0.984379 -2.41993,-0.0742 -2.18554,0.810549 -1.57032,-0.22461 -0.98632,0.60742 -0.19141,1.125 1.7168,5.33789 -0.83789,3.98828 -2.90039,2.15235 -0.58204,-0.10157 -0.83593,-0.14648 3.30468,-4.59766 -0.33984,-2.25781 -2.69336,-2.61914 -0.86328,0.0644 -3.05469,2.23438 -1.36523,-1.31836 -0.4043,-2.3457 -0.50976,-0.31641 -0.5625,-2.437499 1.33593,-3.65625 0.0176,-2.25586 -1.05469,-0.53125 -2.35547,-0.2207 3.72461,-6.33594 -0.0996,-0.6582 -1.66015,-1.45899 -1.58399,-0.60547 -0.60351,-0.92773 0.11523,-1.26367 1.86133,-1.296878 -0.15625,-0.699218 -2.58203,0.291015 -4.32227,-1.349609 -4.13281,-0.880859 -0.39648,-0.09766 -1.24219,-2.378906 -2.26562,-0.654297 -0.41797,-1.046875 -0.80274,-0.851562 -0.83789,-0.08203 -5.68359,3.546876 -0.81641,-0.273438 1.45899,-1.875 3.97851,-2.261719 1.80664,-2.638672 -0.25586,-1.310547 -1.88672,-0.849609 -1.10546,-2.779297 -0.15626,-2.330078 -1.45312,-0.378906 -3.19727,2.013672 -2.98632,-0.1875 -0.40625,-0.02539 -1.03516,0.712891 -1.11719,0.05859 -1.05273,-1.103516 -0.0176,-4.027344 0.36133,-1.634766 -0.51563,-0.3125 -1.36523,1.816407 -0.83203,2.894531 -1.85742,1.646484 -0.98243,1.623047 -0.83984,-0.414062 0.80469,-2.076172 -0.35742,-3.216797 -0.89063,-0.06836 -2.52539,2.314453 -1.58008,0.792968 -1.97851,0.22461 -0.88672,-0.691406 0.38281,-2.115235 1.29688,-1.910156 0.45117,-2.654297 -2.14063,-1.71875 -0.24023,-1.166016 0.52343,-1.896484 0.69727,-0.816406 1.96484,-0.992188 0.64063,-1.816406 -2.85742,0.923828 -0.9668,-0.205078 -1.06641,-1.148437 -0.008,-1.341797 1.74414,-2.017578 -1.53711,-0.84375 -2.04492,-0.4375 0.0547,-1.591797 -0.44336,-1.138672 -2.50586,-0.710938 -2.95117,-1.845703 -1.91797,-0.595703 -0.0996,-0.376953 -0.57813,-2.169922 -2.49023,-4.070312 0.28516,-2.056641 -0.44922,-1.761719 -1.06445,-1.724609 0.23242,-0.800781 -1.60157,-1.167969 -0.86523,0.121094 -2.32617,-2.074219 -0.87695,-0.261719 -0.64454,0.523438 -0.20312,1.27539 2.33203,2.748047 0.0586,0.416016 0.40821,3.023437 -0.46289,2.226563 -1.41993,1.160156 -1.32226,-0.4375 -0.95313,-2.603516 -2.78906,-1.71875 -0.72851,-1.867187 -3.08985,-3.498047 -2.6914,-1.105469 -2.22461,0.41211 -0.52735,0.892578 0.53516,3.478515 -0.40625,0.972657 -1.49219,0.740234 -0.33203,0.460937 -2.57813,3.5625 -2.94531,0.136719 -2.09765,-0.99414 -1.42969,-3.78125 -6.83985,-1.263672 -0.58203,-1.259766 -1.58789,-1.642578 -1.05859,-0.08594 -2.9707,-1.775391 z m 70.84179,232.748042 0.58399,-1.40429 -0.52539,-0.50196 -0.61328,0.23047 -0.0332,0.77149 0.58789,0.90429 z m 451.51758,-193.751948 -0.66406,0.04102 -0.0586,0.621094 0.75977,-0.140625 -0.0371,-0.521484 z m -66.85547,22.558589 -2.57226,0.375 -0.96875,2.5 0.83789,0.84375 2.5,-0.0391 0.99804,-2.11719 -0.0625,-1.37695 -0.73242,-0.18555 z m -435.61523,14.78907 0.26367,1.25781 0.54102,-0.75 -0.80469,-0.50781 z m -1.45117,9.101559 0.5,1.46289 0.67187,-0.29102 -0.0312,-1.09961 -1.14062,-0.0723 z m -13.25782,1.13867 -0.51171,1.51563 0.51953,0.93359 0.32421,-0.19336 0.1836,-1.32422 -0.51563,-0.93164 z m 397.54102,4.73242 0.29883,2.11914 1.71484,3.14844 0.19336,2.65235 -0.48828,1.85156 0.82031,1.17187 2.20899,1.39453 1.67382,-0.51757 0.40235,-2.26954 -5.36719,-9.1914 -1.45703,-0.35938 z m -102.18359,0.0234 -0.70313,0.54883 0.18945,1.2207 0.96289,1.76758 0.47852,0.18945 0.75781,3.125 0.48242,0.66602 0.63282,-0.25 -0.29297,-4.88867 -1.41016,-0.76953 -0.5664,-1.41993 -0.53125,-0.18945 z m -173.48829,2.13867 -0.68164,0.23242 0.25391,0.68555 0.48828,-0.1582 -0.0605,-0.75977 z m -88.82812,10.28125 -0.0469,0.9668 0.71289,0.61719 0.25391,-0.32422 -0.91992,-1.25977 z m 251.73633,5.05274 -0.52344,0.67773 0,1.95508 0.39258,0.19922 1.16992,-0.4043 0.67383,-0.78516 -0.16797,-1.03124 -1.54492,-0.61133 z M 280,165.18555 l -0.41797,0.16601 0.0762,0.51563 0.3418,-0.14649 0,-0.53515 z m 306.24219,21.49804 -0.94531,0.69141 0.46874,0.77344 0.71094,0.13672 0.19336,-0.68165 -0.42773,-0.91992 z m 376.14258,7.23633 -0.75782,0.51953 0.11133,0.90039 0.80274,0.32227 0.2539,-1.49414 -0.41015,-0.24805 z m -781.95508,20.375 -1.33985,0.10156 0.25196,0.92188 0.86718,-0.22266 0.22071,-0.80078 z m -28.16211,1.48047 -0.3418,0.0527 -0.0625,0.82618 0.59375,0.24609 0.41211,-0.54297 -0.60156,-0.58203 z m 31.39062,2.94141 -0.89843,1.28515 1.26171,-0.90429 -0.36328,-0.38086 z m -26.92187,3.3457 -1.00586,0.58789 0.78125,0.16992 0.22461,-0.75781 z m 19.86914,4.84961 -1.41211,0.25781 -2.59375,2.54883 0.72461,2.29297 2.41797,-1.46485 1.64062,-0.38867 0.39649,-0.63476 -0.043,-0.9043 -1.31445,-0.66992 0.18359,-1.03711 z m -5.92188,4.58008 -0.71093,0.25195 -0.18946,0.98828 0.82813,-0.46094 0.0723,-0.77929 z m -3.9375,4.09765 -0.83007,0.125 0.63281,1.10743 0.19726,-1.23243 z m -6.21679,0.26563 -0.82227,0.17187 -0.12109,0.78711 0.61523,0.38867 0.40821,-0.25585 -0.0801,-1.0918 z m 53.99023,0.86328 -0.54883,0.99023 0.20313,0.0195 0.51562,-0.21874 -0.16992,-0.79102 z m -51.07422,0.42578 -0.9707,0.48438 0.1875,0.83398 0.74414,-0.64062 0.0391,-0.67774 z m 1.23828,0.82227 -0.29297,0.95507 0.84571,-0.0312 -0.0176,-0.71679 -0.53516,-0.20703 z m 3.625,0.12695 -0.74414,0.35156 0.45313,0.94141 0.32031,-0.19336 -0.0293,-1.09961 z m -26.29882,0.54883 -0.18165,0.99023 0.4629,-0.2168 -0.28125,-0.77343 z m -7.33399,0.75586 -0.35937,0.53711 0.85937,0.3457 0.0371,-0.67969 -0.53711,-0.20312 z m 36.4961,1.81836 -0.63477,0.7207 0.42187,0.75195 0.34961,-0.62695 -0.13671,-0.8457 z m -27.1543,1.00781 -1.43555,0.99219 0.041,0.23437 1.69531,-0.0234 0.48633,-0.98828 -0.78711,-0.21484 z m 28.1875,0.42383 -0.13281,1.02929 0.19531,-0.0312 0.52148,-0.17382 0.0234,-0.77149 -0.60742,-0.0527 z m -23.85156,3.95507 -2.38086,0.41407 0.0703,0.42187 1.12891,0.16406 1.53515,-0.38085 -0.35351,-0.61915 z m 7.9121,0.37305 -0.89257,0.0391 -0.71289,2.03125 1.61718,-1.39843 -0.0117,-0.67188 z m 51.82422,0.78321 -0.79882,0.30664 0.86328,0.74023 0.35937,-0.58008 -0.42383,-0.46679 z m 2.33008,0.52929 -0.80078,0.30664 0.44336,0.60742 0.36914,-0.19531 -0.0117,-0.71875 z m -4.34375,0.95899 -0.65039,0.62109 0.0391,0.57227 0.77735,-0.44922 -0.16602,-0.74414 z m -31.4707,0.48632 -1.09961,0.30664 -0.81641,1.41797 0.2793,0.48829 1.85742,-0.85352 -0.2207,-1.35938 z m 32.61328,1.07618 -0.92773,0.13281 -0.2754,0.4707 1.03516,0.23633 0.16797,-0.83984 z m -1.41797,8.16992 -0.3789,0.4375 0.71289,0.42578 0.35546,-0.29297 -0.68945,-0.57031 z m -19.07031,1.6289 -1.23047,0.41602 1.20508,0 0.0254,-0.41602 z m 16.72656,160.41602 -0.16015,0.16406 0.2871,0.62696 0.56055,-0.13086 -0.0742,-0.66016 -0.61328,0 z m 5.47461,0 0.28125,1.58594 2.18555,0.0605 -0.52344,1.66016 -3.23047,6.75781 0.0644,1.18164 0.0215,0.33985 0.36133,-0.14844 2.21484,-3.25195 0.34375,0.043 -0.16016,1.51171 1.02735,0.0879 -0.01,2.83008 0.89063,1.11524 0.28515,-0.041 0.40821,0.80274 0.91406,0.63086 0.92578,0.0547 2.19727,-1.42382 -0.11914,0.83203 -1.25391,0.94921 -0.88281,1.52344 0.70312,0.18164 2.61719,-2.46875 1.05859,-0.99414 0.96485,-0.33398 -0.14844,1.26953 0.45117,0.125 1.16602,0.0703 0.74218,-0.54101 0.38672,-5.51758 -0.45703,-1.46875 1.46875,-1.79688 1.375,-0.82031 -0.57226,-1.93164 0.30273,-1.86523 0.32422,-1.00977 -16.32422,0 z m 18.25977,0 -0.53516,0.90625 0.86914,3.27539 2.10352,-1.45312 2.66406,0.0488 1.61523,-2.77734 -6.71679,0 z m 9.79687,0 -0.65625,1 0.16992,0.83789 0.89844,-0.46289 0.70899,-1.375 -1.1211,0 z m 13.53516,0 0.12304,0.12305 0.59571,0.10742 0.18164,0.93164 -0.66992,0.38281 -0.47461,-0.26953 -1.30469,0.32813 -1.57422,-0.54493 -1.87109,1.01563 -3.36133,1.20898 -1.54102,-0.64453 -2.13281,2.60352 -1.88281,0.65429 -0.80274,1.1211 -0.52734,0.0254 -0.69727,-0.80859 -0.42578,0.0605 -2.1289,4.90235 -0.50586,2.13476 0.36718,1.19336 -1.02148,1.25 -0.0703,4.12891 -1.49024,1.32031 0.11524,-3.4668 -0.98828,0.47657 -0.3125,3.44726 0.5,2.75586 -0.91993,0.61133 -1.41406,3.80078 1.30274,1.98828 0.55664,0.85547 2.68359,2.24609 0.61133,-0.0879 -0.46289,-2.18359 0.70312,-0.77539 1.22461,-0.17383 0.89453,0.20508 1.26758,-1.18945 1.35352,0.38085 -0.0274,-0.1875 1.0293,-0.19531 1.70508,2.15039 2.54687,-1.32031 0.5586,0.77734 0.2832,0.39454 -1.64062,0.46679 -0.30469,0.75586 0.23633,1.28125 -1.17774,0.54688 -1.42773,0.34179 -1.07617,-1.13672 -0.65039,0.14063 -0.51563,1.41797 -0.70508,0.0996 -0.83398,-0.78906 -2.10938,0.6875 -1.39257,-0.32618 -0.0762,1.44922 -1.53906,1.61133 -0.7168,1.17773 -0.38476,-0.82617 -0.60547,-0.19922 -1.99219,4.07618 -1.21289,0.22461 -0.57226,1.33007 -0.97266,0.23828 -0.86914,1.90039 -1.38672,0.6836 0.54102,1.07031 1.44335,-0.93164 1.31641,0.14258 1.36524,0.80664 1.52734,1.59766 3.16992,0.0664 1.48047,-0.16015 3.70703,-0.39844 0.83203,0.45312 1.10352,-0.97265 1.68164,-0.28907 3.19531,-3.09179 2.97852,-1.625 1.20898,-1.60742 1.38867,-1.01172 1.70508,-3.49805 2.6211,-0.9668 0.11523,-0.041 1.11914,-1.9375 3.16992,-2.68946 0.26172,-0.51171 1.53516,-0.35938 2.38476,-2.1543 4.72657,-0.89453 1.34765,1.39453 3.57422,1.18164 1.125,-0.20312 1.57813,0.3125 2.76757,-0.80859 0.5,0.01 3.35352,0.0859 0.58209,0.42757 0,-30.2832 -29.47656,0 z m 189.47656,0 0,213.70898 1.83594,0.72461 1.05468,0.80079 1.51368,-0.25196 0.87304,1.29688 1.21485,-0.23438 0.38476,-0.0742 1.06836,0.94336 1.36914,0.19336 3.66407,2.08789 4.16601,1.89844 1.79102,1.20898 3.5332,1.46094 2.47656,1.61719 1.73828,-0.625 4.41016,1.73633 0.85547,0.65429 3.52734,3.02735 1.26367,0.11523 3.77735,2.21289 0.91601,-0.13672 0.42969,1.1543 1.21875,0.64844 2.7832,0.49414 3.02344,1.62305 1.26367,0.11718 1.14844,-0.63476 -0.14258,-0.5625 -0.71875,-0.26563 -0.41992,-1.05859 -0.99414,-1.24414 0.0508,-0.96289 1.40235,0.10547 1.9082,0.88086 1.29101,0.63086 1.89649,1.49414 -0.56055,0.48242 -2.33984,0.27344 -0.0469,0.53125 5.58399,0.71289 0.92578,-2.09766 6.49805,-0.51367 1.3125,0.6914 2.04882,0.30079 0.53516,0.082 4.08984,1.72656 7.07813,1.45703 3.74219,0.42774 3.52148,-0.0313 1.81445,-0.44726 1.16211,-1.10547 6.8418,-2.46875 3.76953,-0.95117 2.08203,-1.18359 3.35547,-0.38477 2.72656,-1.28516 5.27735,-1.48633 2.7539,-0.77148 7.40039,-2.67187 4.49219,-0.13086 2.64063,-0.69336 0.0976,-0.53321 -2.83203,-0.01 -1.0332,-0.72461 -0.95508,-2.76953 -0.35937,-1.04297 -1.67969,-0.67383 1.22461,3.19531 -0.69336,0.63282 -1.67383,-2.39454 -0.79102,-1.79687 -0.92382,-0.54492 -1.80274,-2.23828 -0.98828,-0.73047 -1.04492,-0.29688 -0.50586,-0.51367 -3.20313,0.27344 -0.98242,-0.26953 1.03711,-0.9961 2.55078,-0.69531 1.12696,0.14648 1.53125,1.16211 1.29297,1.66016 1.96874,-0.40234 1.18555,0.90429 -0.13281,-2.33007 -0.59375,-1.04883 -0.94727,-0.78125 0.17188,-1.97461 -1.24805,-1.08985 -4.54297,-0.0957 -2.24804,-2.77734 -0.63477,-0.375 -2.08984,0.37109 -0.67188,-0.43945 1.81445,-0.71289 2.08985,-0.0801 2.31445,2.76758 1.97266,-0.97656 1.26367,0.084 1.68359,0.7207 0.26172,-0.83398 -0.74804,-1.80078 -0.2793,-1.79102 0.45508,-1.32812 0.55468,0.52734 0.49024,2.68164 0.74023,1.75781 0.28907,3.07813 0.69921,1.23437 1.33789,1.08008 0.28907,-2.31445 -1.1211,-2.43946 -0.85351,-0.79101 0.17578,-0.44336 0.21289,-0.54297 0.65234,0.61524 1.07032,1.77539 1.07031,5.40625 -0.28125,1.73437 -0.0977,0.58789 0.084,1.66602 0.24218,0.125 1.55274,-5.76563 -1.48438,-2.36328 -0.50976,-2.3457 -0.94727,-2.02344 -4.2539,-6.14844 -2.39844,-0.85156 -1.0293,-2.39648 -1.00781,-0.96875 1.72266,0.17578 1.94921,2.05273 2.83008,1.58008 4.50977,6.46094 1.10351,3.44531 0.82618,4.08984 -1.16602,3.58008 -0.24219,0.35547 -0.55078,0.80859 -0.26367,1.40821 0.15234,1.37304 0.625,1.47657 1.03711,1.39648 3.16797,1.36719 3.4375,-3.04883 0.85742,0.3125 1.83203,-1.57812 6.42188,-3.25391 0.96484,-0.48633 4.66992,-3.4707 2.32227,-1.94922 2.80469,-2.98633 3.17578,-4.34765 2.13672,-6.0625 0.95898,-2.72071 1.47656,-2.83203 2.10352,-2.54687 -0.50195,-0.48829 -2.25586,3.03516 -2.67188,1.73047 -4.45703,-1.61523 -2.02148,-1.51758 -0.043,-0.57032 2.13476,1.125 2.7461,0.55469 2.00781,0.0371 1.32617,-0.38672 3.90821,-4.0664 1.44531,-3.30664 2.41601,-3.98438 0.42969,-0.32226 -0.14453,-0.42774 1.6875,-0.60352 0.93945,-1.93164 0.25782,-0.97265 -0.25586,-0.98438 1.4707,-1.0625 0.50977,0.56446 5.02539,-3.68946 4.14843,-2.30078 1.92188,-0.66406 0.10156,-1.65234 0.0469,-0.77344 1.08203,-0.91211 0.96093,-0.92188 -0.92773,2.88086 0.17187,0.46485 0.96876,-0.21094 3.69335,-2.16992 4.69532,-1.23438 -0.30664,-1.12304 0.49609,-0.27344 0.44141,1.01953 2.10156,-0.67774 0.25781,-0.48828 3.30274,-1.08398 1.07617,-0.0273 1.83008,-0.69727 0.52929,0.20117 3.83203,-0.87695 1,-0.49609 1.48438,-2.4375 0.57226,-0.22852 -0.006,-0.32031 0.21484,0.30859 -0.17578,1.50195 -0.0234,1.23047 1.0332,-0.6914 2.64258,-0.46094 2.98047,-0.0898 1.04297,-0.0293 4.05664,0.51953 0.38672,0.0508 4.99219,-0.36719 5.89453,0.38477 1.61718,-0.18945 2.07813,0.0742 2.74023,-0.18359 2.40625,-0.57422 2.08789,0.20703 1.83399,-0.44531 1.36914,-1.46484 0.8418,-1.67188 -0.20899,-1.99023 0.39063,-2.17188 -0.44922,-5.59765 -0.49219,-3.40625 0.61914,-0.65625 0.0293,-1.90821 0.69726,-0.94726 1.61133,1.85742 0.97852,4.75977 0.94922,0.99218 0.23828,1.70117 0.86133,1.95118 0.76171,1.00586 0.59375,-0.0781 0.76758,-1.04102 -0.0195,3.28126 1.00586,3.70703 0.83789,-2.62305 0.14063,-1.67578 -0.26172,-2.98828 0.80273,-2.43164 0.91602,1.27929 -0.0625,3.91407 0.44336,1.21484 0.58008,-0.51172 0.48046,-1.50586 0.66602,-4.90039 1.06641,-0.25195 0.23046,-0.91992 0.51758,0.0176 1.84571,-1.4414 3.53515,0.22851 0.4375,-0.59375 -1.03711,-0.0391 -1.53515,-0.62695 0.0215,-0.47656 2.31836,0.34374 1.29687,0.5 0.49219,-0.18554 1.91797,-0.42578 2.51758,-1.23828 3.33984,-2.61329 2.00782,-1.16015 1.52343,-1.41602 0.56446,-0.88867 2.08203,-1.58984 0.11914,-0.21289 1.08789,-1.90039 0.23047,-1.01368 2.13476,-1.54297 0.99414,0.13672 -0.80078,1.85352 -3.97265,4.12109 -2.26368,1.69532 -4.79687,5.31445 -0.77148,1.12695 -0.44922,0.65625 -0.67188,0.60938 -1.06445,0.29492 -0.83008,2.04883 0.36523,0.64843 0.98633,0.041 1.11914,-1.06445 2.64063,-4.19727 5.17969,-6.0957 1.57421,-0.4668 1.71875,-2.54101 2.83008,-4.18165 0.90625,-0.66601 2.03125,-2.68164 1.80078,-1.66797 -0.28711,-1.03125 0.38477,-0.7832 0.70313,-0.0352 1.99023,-1.72461 1.37305,-1.78516 0.6289,-1.55664 -0.34961,-0.4121 -2.91211,3.10546 -0.0742,-0.52148 0.59376,-1.31641 1.11718,-1.29687 -0.60937,0.0664 0.12695,-0.23242 -0.70898,-2.46289 1.04492,0 3.76953,0 -1.66016,1.33789 0.63477,0.39649 3.77344,-1.73438 0.83593,-1.73437 0.23047,-0.58203 3.66602,-1.75391 4.37304,-3.64063 0.27149,-1.05664 0.62695,-0.74414 0.73242,0.58008 2.50782,-2.54492 3.58593,-4.5918 1.98829,-1.66406 1.37695,-1.72656 6.75,-5.68555 0.48437,-0.94141 0.31641,-1.01562 7.45898,-4.91016 0.15625,-0.01 1.16993,0.0273 3.11523,-1.04492 0.79883,-0.082 2.38281,-1.57813 4.75195,-1.43945 2.34766,-0.29297 0.82617,-0.55664 0.87891,-1.55664 -0.74024,-0.77344 -1.56445,2.0586 -2.42578,0.73047 -4.00781,1.21093 -0.0352,-0.80469 0.53516,-0.73632 2.80469,-0.64453 1.58593,-1.53907 0.65039,-1.35547 1.5293,-0.68359 0.92578,-1.60547 1.65625,-1.06836 0.59766,-1.49609 0.0391,-1.32813 0.82227,-0.48047 0.20312,0.0488 0.30274,0.51563 -0.66016,1.21484 0.17969,0.8457 1.36718,0.0859 3.1836,-0.89258 1.30859,-0.69336 1.51172,-0.80078 1.51562,-0.0117 1.09961,-0.89843 2.125,-0.0859 0.50782,-1.53711 0.79297,-0.22266 0.88086,0.67579 2.65039,0.0859 0.26367,-0.53125 -0.73633,-0.68359 1.06641,-0.5625 1.39843,1.58203 0.21485,-1.45508 -1.33399,-1.15429 0.33203,-0.27735 1.60938,1.26563 0.95898,-0.93946 1.51368,-0.0566 0.45312,-0.49414 -0.67773,-0.40039 -4.26758,-0.16797 -1.28125,-1.27734 -0.57032,-1.25781 0.60938,-1.35157 2.68945,2.07813 0.46094,0.93164 0.99609,0.0527 2.88477,-1.34375 0.2832,-1.24218 0.70313,-0.21875 0.92773,0.72656 0.81446,-1.02539 0.63281,0.44922 0.51367,-1.39649 -1.12305,-0.95312 -0.96289,-0.39063 -0.0703,-0.5664 2.4043,-0.375 0.4707,-1.34375 0,-3.84571 -1.02148,-0.67382 -0.54102,0.77929 -0.38281,-0.0801 -0.59375,-3.15625 -0.48828,-0.36132 0.28711,-1.19727 0.23828,-0.008 1.35351,3.17578 1.24219,0.23633 -0.19141,-4.19532 -0.0625,-1.3457 -2.23046,-2.7793 -0.8379,-2.99023 0.22266,-1.62109 1.41797,1.78711 2.88086,3.56445 0.1582,-1.71875 0.64844,0.70312 0.17383,0.78321 1.25,1.71094 0.0781,2.05273 1.13086,1.12695 0.20508,1.70117 -0.44531,2.15039 -2.34571,1.98438 1.27344,-0.23633 0.49805,0.64649 -0.18945,1.28906 4.0957,1.89062 1.31445,-1.70703 -0.875,-1.91406 -1.47461,-1.41797 -0.28906,-1.50976 0.80664,0.53515 -0.27148,-0.71875 -0.10938,-0.28906 0.25586,-0.98828 -0.26953,-1.4375 0.50781,-0.50196 0.44531,0.50586 0.45508,2.07032 0.56836,-0.54102 0.48828,3.58984 0.74024,1.43946 0.48242,0.93554 1.68164,0.60743 -0.5332,2.38867 1.41015,-1.66211 0.52344,0.0781 0.34961,-0.94921 0.21484,-0.58985 0.74024,-0.49805 -0.14649,1.23829 1.05274,0.24804 -0.17578,0.4336 -1.54492,0.57422 0.0117,0.28515 1.0918,0.10547 -0.67578,0.9707 -0.22852,2.9961 -0.88476,0.41015 0.36133,2.2168 0.63672,0.64258 0.65624,-0.21289 -0.0664,-0.51953 0.75976,-1.30664 0.72071,0.30859 0.72265,-1.01953 -0.0371,-1.09375 -1.80468,-1.55078 1.1875,-1.27149 0.28711,0.33008 0.55078,0.63672 0.5957,-0.58984 1.06055,0.5332 0.32422,1.22266 1.21093,-0.65821 0.53125,0.31446 1.14649,-1.12891 0.35547,-2.14453 3.23242,0.22461 3.18945,1.98437 3.12696,4.55078 -0.82032,0.97461 -1.13867,-0.10547 -0.13281,0.33594 0.74414,0.72266 1.93359,0.0937 0.74805,-0.46485 0.7832,-0.48437 0.94922,-1.5 1.41406,-0.13867 -1.16406,2.17187 0.41406,1.17188 -0.32031,0.34179 -1.19336,-0.38867 -0.26172,0.76563 -0.62109,-0.25391 -1.43945,-0.58203 -0.99024,0.125 -1.22851,-0.92969 -5.76172,-0.17383 -3.2461,0.74024 -3.32812,0.75976 -1.7168,0.96094 0.008,0.23633 2.41211,-0.0352 2.24219,-0.83398 1.97852,-0.30274 5.68164,0.19336 1.48047,0.42774 1.98828,-0.0137 1.38672,0.52539 0.53515,-0.0312 2.38086,-0.13477 0.71875,-0.041 0.42969,-0.45899 0.30469,-0.32422 -0.9961,-1.6289 1.57422,-2.70508 1.23828,0.29687 0.44532,-2.52734 1.61718,-1.37695 1.78516,-0.48047 -1.18945,-1.81445 0.35156,-0.91211 -0.4082,-0.93555 -1.52735,1.2793 -0.57812,-0.41016 -0.79492,0.45117 -0.85547,-0.0703 -0.74024,-0.97266 -0.99414,0.0293 0.14258,-0.55274 0.45703,-0.48828 0.41016,-1.88476 0.91992,-0.5 0.76367,-1.58985 1.73047,-0.80664 1.88086,-5.46484 0.47851,0.17578 -0.56054,2.59375 -0.24219,1.5 -0.70312,1.1875 -1.03711,1.76563 -0.45313,2.24414 0.41602,1.26757 0.48828,-1.10546 0.21094,-2.47266 1.5371,-2.54297 2.39649,-2.64453 3.01172,-2.46289 2.66406,-1.69922 3.55859,-1.69922 -0.35351,-0.79492 -0.76172,-0.30664 -0.34375,-0.13672 1.01562,-1.25195 0.6543,-0.26563 1.00977,-1.26172 0.89843,-0.25976 1.38868,-1.41211 0.85937,0.11719 0.0586,-1.37696 -0.1914,0.008 0.81445,-1.6836 0.043,-1.94336 1.29492,-1.41211 1.40039,0.77149 1.76367,0.0527 1.7461,-0.61523 1.1914,-0.0293 1.74219,1.14063 0.91211,0.26367 0.74219,1.12109 2.0625,0.56641 1.40039,0.96289 -5.53516,0.38867 -0.59179,0.043 -4.56446,2.06055 -3.6875,0.85351 -3.70117,2.04492 -0.81054,1.68164 2.41992,-1.91601 4.47265,-1.72852 2.73438,-0.63281 7.43555,-1.71094 2.95312,0.1211 0.95312,-1.91993 0.4004,-3.14062 2.56836,-2.28711 -0.0664,-0.75977 -0.97656,-0.97265 0.041,-2.41797 0.85352,-2.08399 2.62304,-6.39062 0.0664,-1.33008 -1.13281,-1.53906 1.2832,-4.39258 1.19914,-1.61265 -0.86328,0 -0.64063,0.86133 -1.65039,3.02539 -0.12304,-1.1836 1.64843,-2.70312 -0.87109,0 -0.30469,0.41406 -1.01172,-0.30664 -1.33203,0.26563 -0.45312,-0.37305 -467.39844,0 z m -241.01172,1.09375 -0.84961,0.12891 -1.62109,1.72851 0.0527,2.86914 0.33008,-0.0488 0.9707,-1.87304 1.59961,-0.91016 0.17774,-0.74609 -0.66016,-1.14844 z m 8.54102,0.83789 0.0566,0.71094 0.5332,0.64062 0.0312,0.85742 0.5,-0.21679 0.23633,-0.99414 -1.35742,-0.99805 z m -2.43164,2.13477 -0.45704,0.5 0.36524,1.76757 0.56641,-0.084 0.13867,-1.31641 -0.61328,-0.86718 z m -1.03125,2.45507 -0.875,1.23438 0.99218,-0.14844 0.23243,-0.70703 -0.34961,-0.37891 z m 4.78125,5.76368 -0.51758,0.0781 -0.33203,1.62891 0.56054,0.20508 0.28907,-1.91211 z m 1.61914,1.77539 -0.33594,0.33593 1.83984,1.98243 0.46875,0.004 -0.52929,-1.38672 -1.44336,-0.93554 z m -1.19141,5.54492 -0.9375,1.14648 0.9668,0.33594 0.62109,-1.00391 -0.65039,-0.47851 z m -2.46289,0.60547 -1.37305,0.15625 0.81446,0.93359 0.72656,-0.30078 -0.16797,-0.78906 z m -5.14648,1.96484 -0.62891,0.28711 0.13867,0.60156 1.36328,0.41993 0.084,-0.39649 -0.95703,-0.91211 z m 65.80664,10.8457 0.002,1.38868 -0.7207,0.33984 -0.78907,-0.51367 -0.87109,0.18359 -0.48047,0.0996 -1.12695,1.54492 -2.21485,0.97852 -2.08593,1.87109 0.59961,1.87696 3.00781,-0.084 0.66992,0.625 -0.41797,0.82422 -1.16992,0.21094 -1.30273,-0.39258 -1.38086,0.38477 -0.2461,-0.15235 -0.64453,-0.39258 -1.86133,0.4043 -1.66992,-1.29883 -0.70312,0.0977 -6.96485,9.6543 -1.54101,0.93554 -4.03321,5.60156 -0.42187,0.35352 0.0547,2.38477 -0.64649,1.48242 -0.85351,0.082 -0.13868,0.0137 -0.40625,0.48828 1.03907,0.90625 -1.41797,0.44141 -0.52149,0.69726 1.01758,0.76368 0.43946,-0.58985 0.73632,0.13672 1.57813,-0.32226 0.0937,-1.02149 2.33203,-0.38281 1.95312,0.63086 0.5625,2.60156 -0.37695,2.06445 -1.12305,0.83399 0.55079,0.49414 2.17773,-0.78906 2.24414,1.14453 0.83984,0.42773 4.24415,-1.36523 1.3789,1 -1.13672,1.07226 -1.30859,-0.15234 -0.0332,-0.23438 -1.15625,1.26368 -0.97461,-0.48243 -1.03516,0.4336 -0.30664,0.52148 0.92578,1.4961 -1.37109,1.77734 0.50195,0.50195 0.58008,-0.60937 0.98047,0.19531 2.97851,-1.52148 1.27735,0.49804 1.69531,0.66211 -0.0274,0.48438 -1.84765,0.40234 0.0312,0.23633 -1.01953,-0.14453 -1.14844,0.64258 -1.67383,0.2832 -0.20898,0.55469 0.54687,0.83398 -1.20703,0.89063 -2.08789,0.39062 -0.32617,-0.28711 0.51953,-1.0332 -0.1582,-1.125 -1.90235,-1.64453 -1.63281,0.56836 -0.39453,1.58984 2.68164,1.76953 -0.16992,0.46485 -0.0703,0.1914 -0.74024,0.1543 -1.1543,0.26172 0.0547,0.375 0.83203,0.50195 -0.0644,0.87109 -0.96875,0.23633 -0.21289,1.17774 2.61914,1.34961 0.0391,0.2832 -1.16601,0.16406 -2.00391,-0.38281 -0.63281,0.90625 -0.45899,-0.5586 0.13086,-2.07617 -0.85937,-2.03125 -0.90039,0.0312 -1.50782,-1.55273 -1.0996,0.30273 -0.30469,1.52735 -1.85938,0.31445 -0.0566,-0.17383 -0.28515,-0.87695 -1.45704,0.78515 -0.81445,-1.02929 0.46485,-1.41016 -0.47657,-0.31445 -1.10351,1.59961 -1.06446,0.53711 -1.27929,-0.29492 -1.46485,-1.5586 -1.60937,-0.57812 -0.49024,0.88672 -1.01757,0.53125 -0.0371,1.05859 1.51172,-0.41211 1.81445,0.69336 1.9707,1.43555 1.35156,2.21484 0.39454,0.64648 1.03906,0.95118 3.39062,1.08984 0.041,0.2793 -0.67969,0.57617 -2.07031,-0.17578 -0.32227,0.71679 0.41211,0.5625 2.12891,0.60157 0.0957,0.65625 -0.71094,0.34179 -1.35156,-0.14062 0.17578,1.2207 -1.99023,0.38477 -0.49219,-0.78906 -2.62695,0.57421 -1.50977,-0.59375 -0.24219,-0.68359 1.17383,-0.40625 1.22657,-0.42383 0.23828,-0.6582 1.3457,1.09765 0.13086,-1.07031 -0.75,-1.56836 -1.25,0.56641 -0.77539,0.87891 -1.07813,-0.22657 1.09375,-1.30859 -0.26171,-0.48828 -3.20313,1.85547 0.0703,0.9082 -0.5625,0.60352 -0.0137,1.12109 -0.67187,0.28516 -0.20704,0.64062 0.54102,0.0352 0.9043,-0.47266 1.16797,-0.23242 0.54687,0.82812 -0.79687,0.4043 1.76757,2.04297 2.15039,0.73633 1.31641,1.24609 0.28125,-0.0391 1.22461,1.5918 -2.16602,0.125 -1.14648,0.5957 -1.25195,-1.10938 -2.0625,3.46289 -1.51953,0.31836 -0.84571,1.03711 -0.70898,-1.28515 -0.26953,0.0391 -2.19141,0.32422 -0.71875,-0.37305 -1.17773,1.03906 -2.30664,0.77149 -0.51758,1.6582 -2.56446,2.53906 -1.66601,0.29688 -0.36719,0.72656 -2.33789,-0.75195 -2.74219,-2.51172 -2.34179,0.21094 -1.98047,1.54101 -3.28711,2.56446 -1.26563,0.0957 -0.65625,-0.57227 -1.71093,0.59766 -1.61719,1.94531 -1.46094,0.88672 -0.23437,1.04492 0.0996,2.05274 -0.17969,0.58398 -0.11328,0.37109 -2.21094,0.51368 -3.66406,-0.33399 -4.73633,-1.85547 -0.71875,0.29688 -1.77539,1.55859 -0.21485,-0.83203 0.17579,-1.08594 -0.51758,-2.27929 1.4375,-0.92188 -1.44336,-6.00781 -1.42969,-1.88672 -0.95313,-0.33203 -0.47656,-0.93164 -1.16601,-0.77735 -1.5,-2.64453 -1.27735,-0.5664 -1.25976,-1.38672 0.18554,-0.0273 -0.68164,-1.33203 -3.78125,-1.37304 -1.0664,1.82422 -0.32227,0.55468 -0.49414,2.6211 0.25781,1.35351 -0.52343,1.51953 0.48437,1.89063 -0.41406,0.68945 0.46484,3.28711 -0.56054,3.52539 -4.53125,3.84766 -0.125,0.45117 0.41015,0.51953 -0.80273,0.69531 0.66015,1.25 1.17188,-0.1289 0.37305,1.24218 1.4375,1.70899 0.98046,0.19141 0.72657,0.75781 0.85156,-0.0332 2.14648,0.69141 1.42969,-0.42383 0.84961,-0.25195 0.47852,1.32227 -0.34375,0.58203 -4.69922,1.03711 0.0137,1.39257 -0.6875,1.16016 -0.15039,1.89844 -1.75391,3.92187 -1.16797,0.12696 -0.73828,2.42187 0.26758,1.83594 0.44141,0.75391 0.18359,-0.36524 0.98828,0.91016 0.56055,0.92968 0.68945,1.14258 0.75196,0.60742 -0.57032,1.62696 -0.13086,1.70508 -0.88476,0.75586 -0.82032,1.52148 -0.94531,0.67187 -0.24023,0.61329 0.27539,0.91992 1.50781,2.22656 0.80664,0.0234 0.43946,1.71484 1.13867,-0.45312 1.1875,-0.47266 3.32617,-2.85742 1.80664,-0.60742 0.45312,0.0898 1.20313,0.24414 1.31445,0.9082 3.21875,0.67774 2.57031,0.10156 3.0879,-3.58203 2.625,0.81641 0.99218,-1.01172 2.88282,-1.38282 0.51562,0.31055 -0.50391,0.79492 0.25391,0.7793 1.56836,0.73437 0.50977,-0.74804 -0.1836,-0.98242 0.1836,-1.37305 0.98242,-0.0957 3.7539,-3.28516 0.875,-0.17578 2.57227,1.45898 0.38281,0.71485 1.15235,0.79297 2.57226,-0.22266 1.38867,1.14844 5.47852,1.2832 1.4043,0.27539 0.58984,0.11719 0.95508,-0.95313 1.54687,-0.46093 1.59766,-0.082 2.63867,0.97461 3.12305,-0.006 0.30468,-0.0547 4.08008,-0.75 0.87305,-0.55469 1.68555,0.58203 1.8125,-0.58789 1.77929,0.23437 2.06446,-0.14062 1.26953,-0.98047 6.1914,-1.96484 0.85352,-0.69336 0.80859,-2.12695 0.66407,-0.7129 2.07617,0.67774 3.37109,0.0723 3.12305,4.7168 2.43359,2.93164 0.25586,0.30664 2.57031,1.24024 5.53907,-1.7461 1.31836,-1.13672 2.67968,-0.11328 8.38477,-2.44726 0.96289,0.0371 0,-106.46094 -1.83398,0.19531 -2.09571,-1.29492 -0.32422,-2.01367 -1.94726,0.83984 -0.0254,-0.1875 -1.02344,0.23633 -0.7832,0.92383 -1.82813,-0.0391 -0.98242,-1.20508 0.4707,-1.45313 -0.58789,-1.11328 -1.5664,-0.2168 z M 280,454.49609 l -2.27539,0.82618 0.44727,0.80078 1.82812,0.27343 0,-1.90039 z m 548.28711,3.17188 -0.32227,0.29687 0.82227,1.36719 0.56445,0.0527 -0.48633,-1.54883 -0.57812,-0.16797 z m 2.03125,2.20312 -0.30859,0.62696 1.02148,1.9082 -0.006,3.70312 0.31055,1.97852 0.4707,0.10547 0.43945,0.0996 0.30274,0.50976 0.78515,-0.55078 -0.79101,-3.48047 0.36328,-0.4414 1.14844,2.90039 0.4082,-0.58399 -0.19336,-1.36914 -1.21289,-2.04492 -2.73828,-3.36133 z m -607.61914,2.79492 -0.16016,0.55079 0.9668,0.0508 0.0859,-0.39649 -0.89258,-0.20508 z m 617.49023,11.55469 -0.9414,1.55078 1.2207,-0.32617 -0.2793,-1.22461 z m -20.86523,4.42383 -0.12891,0.48438 0.89844,1.15039 0.65625,-0.16602 -1.42578,-1.46875 z m 9.96289,0.61914 -0.2832,0.0137 -0.39649,0.82032 1.19531,0.24218 -0.51562,-1.07617 z m -2.65039,1.24024 -1.10156,0.9414 0.9082,0.25196 1.0332,-0.22852 0.26758,-0.4375 -1.10742,-0.52734 z m 3.0957,0.5 -1.08203,0.18164 -0.76562,1.07422 -1.60157,0.15624 -1.71484,0.96485 -0.30078,-0.41602 -1.5,0.3418 -1.63867,1.37109 -1.49219,0.88672 -1.60742,0.0645 -3.54492,1.18164 -5.34961,1.07226 -4.03907,1.7793 -3.51367,0.76367 -1.8457,3.05273 1.33008,-0.70507 0.30078,-0.28125 1.60937,-1.50782 3.82813,-1.1582 3.05469,-1.59375 9.9082,-1.72461 1.32422,-1.23633 4.39843,-1.01367 1.79297,-0.41015 7.4336,0.19921 8.49609,0.78907 3.20703,1.07617 0.1211,-0.6211 -2.85352,-2.13085 -0.60547,0.25781 -0.86133,0.36719 -10.38086,-0.77149 -0.73828,-0.82617 -1.80078,-0.0273 0.43164,-1.15625 z m 16.32227,1.17187 -1.21875,0.32617 -0.11719,0.71875 1.26953,-0.23437 0.0664,-0.81055 z m -45.81446,8.92383 -1.10351,0.71289 0.34766,0.41016 0.59179,-0.54688 0.16406,-0.57617 z m -551.09179,3.04883 0.12109,1.51953 0.69336,-0.48242 -0.0996,-0.70508 -0.71484,-0.33203 z m -12.04297,2.44922 -0.11328,0.87695 1.75586,1.2793 0.0625,-0.58204 -1.70508,-1.57421 z m 6.30273,0.0957 -1.31836,0.43164 0.67383,1.05078 0.14844,1.36914 1.42578,1.32813 0.88867,-0.12891 -0.11523,-1.13281 -1.24805,-1.73633 -0.45508,-1.18164 z m 449.61328,65.125 2.00391,5.41015 -0.41406,-3.12109 -1.58985,-2.28906 z m -0.22265,1.01562 -0.39649,0.45313 -0.0312,1.09766 0.0352,0.61914 0.51953,0.82617 0.28906,-2.30664 -0.41601,-0.68946 z m 2.91797,3.35547 0.20312,2.75196 0.57031,0.10937 -0.77343,-2.86133 z m -1.59571,0.0449 -0.32617,0.0195 0.59961,3.06445 0.64453,0.62695 -0.91797,-3.71094 z m 23.85743,1.82032 -3.72266,3.16406 -2.96875,3.21875 -1.11523,0.77734 -0.37696,0.26172 -1.02148,0.1543 -0.21875,0.29883 6.76758,-0.57422 0.46289,-2.69727 0.74023,-0.23242 1.73633,-4.33789 -0.2832,-0.0312 0,-0.002 z m -24.91602,3.4414 -0.12891,1.00782 0.27735,1.55859 0.48047,0.16211 -0.14258,-2.4707 -0.48633,-0.25782 z m 14.33594,4.50196 -4.91211,0.69336 0.082,0.38281 0.54687,0.0156 1.89258,-0.19726 2.39063,-0.89453 z m -11.56446,0.43554 -2.05468,0.16992 0.40429,0.5 2.6875,0.26954 -0.17187,-0.5625 -0.86524,-0.37696 z m -130.28906,59.64258 0.53516,2.67969 0.38476,0.1582 0.14649,-0.48828 -0.31641,-1.69531 -0.75,-0.6543 z" id="path4" inkscape:connector-curvature="0"/>
  <path style="fill:#ffffff;stroke:#003897;stroke-width:1;stroke-miterlimit:4;stroke-dasharray:none;stroke-opacity:1" d="m 402.69922,92.947271 -1.26563,0.13281 -1.12695,1.21875 -0.30664,-0.18164 0,206.908199 584.58398,0 1.75,-1.60156 -0.25195,-0.66211 -2.69922,-1.20899 -2.34765,0.25977 -2.20899,1.07617 -0.93555,0.45703 -0.95703,-1.0664 1.94336,-1.20703 0.91211,-1.42969 4.84375,-0.14258 1.84766,-1.1543 0.76953,-1.47851 0.6582,-3.04297 0.67188,-1.42774 -0.41211,-2.27539 -1.18359,-0.79492 -2.06055,0.0176 -1.26367,1.00781 -0.33985,0.0156 -1.22851,0.0469 -2.01172,-0.35937 -3.125,1.21875 -3.72656,-0.2461 -3.64454,-1.38086 -2.75195,-0.58398 -4.16211,0.28906 -2.7832,0.84375 -2.10547,0.0742 -0.64258,0.23047 -1.8457,0.66016 -0.55469,-1.08399 3.51758,-0.80664 1.16797,-0.53906 2.15429,-0.2207 1.84376,-1.39844 4.46874,0.46679 4.85547,-0.0566 2.84571,0.39649 1.92578,-0.9043 0.75976,-0.35547 2.35157,-0.31054 2.79687,0.30664 3.32031,-1.74024 1.50586,-1.48242 1.25196,-2.76172 1.79882,-2.10351 0.66993,-1.95118 1.90039,-1.86523 -0.64649,-1.03906 -2.36718,-1.81446 -0.20704,-0.1582 -2.8164,-1.25586 -3.90821,-2.33984 -1.62695,-0.36328 -2.09766,1.87109 -2.26171,0.26172 -1.66407,0.63281 -4.54882,-1.84961 -4.32813,0.19336 -1.07422,0.64063 -1.85351,1.10351 -3.57813,0.90039 -1.41601,0.82617 -1.81641,0.11914 -2.65625,3.58985 -0.69531,-0.83985 0.25976,-2.23242 0.95899,-1.67382 1.26562,-0.91993 3.14649,-0.0898 3.41601,-1.98828 2.62305,-2.55078 0.93359,-0.20117 5.86133,0.21679 1.82813,0.40821 0.51757,-0.0723 0.61329,-0.084 1.48046,-1.01566 -537.21484,0 0,-107.88867 -0.89453,-5.27539 -2.99219,-3.60938 -0.46094,-1.8164 -0.60546,-0.84571 -2.21876,0.51172 -2.63867,-1.35156 -2.58398,-2.59961 -1.46289,0.0547 -1.74024,1.20898 -0.8164,-2.23242 -0.29883,-2.54883 -0.87109,-2.24804 -1.36524,-1.24219 -1.75,-1.06055 -2.38476,-4.24023 0.18554,-0.59375 1.85156,-1.09961 -1.04492,-1.08594 -0.44726,-1.19336 -0.30078,0.0312 -0.9336,-1.4375 -0.11328,-2.22656 -0.54297,-1.13867 -3.57422,-2.63477 -0.33007,-2.30469 -0.24024,-0.56445 -0.4668,-1.08008 -1.15429,-0.6914 0.19922,-1.31055 -0.46875,-2.19531 -1.95704,-3.08985 0.13086,-1.87695 -1.97656,-0.69727 -1.24219,-1.019529 -0.45898,-0.3789 -1.25195,-3.54493 -0.0801,-2.76171 z m -116.91992,19.255849 -1.57618,0.0566 -2.07617,0.87304 -2.12695,0.54297 0,8.55664 0.2207,-0.125 2.34766,-0.34765 1.78906,-1.04102 7.50977,-0.2793 0.11328,-0.0762 0.39648,-0.27539 -0.10742,-1.4707 -0.87695,-1.46875 -4.42578,-3.08399 0.20117,-0.0254 -0.28906,-1.30273 -1.09961,-0.53321 z m -1.25782,13.1875 -1.87304,0.0977 -2.64844,1.10742 0,37.86524 5.85352,-1.58985 1.85546,-1.19531 2.44141,-2.03516 4.08203,-6.21484 0.46875,-3.8418 1.20899,-2.21289 -2.39844,-1.51758 -0.91602,-1.08203 -2.35351,0.29297 0.92773,-1.74023 2.47266,-0.35547 0.31445,-0.043 1.5957,-1.63867 0.33204,-2.67383 -0.59961,-1.36328 -0.37891,-4.45117 -1.80273,-1.92969 -1.91211,-0.9082 -2.91407,0.27148 -3.24218,1.17774 -0.0274,-0.1875 -4.30859,0.95898 -0.5918,-1.38867 4.1836,-1.01172 2.03125,-1.45703 0.83007,-1.30274 -0.50781,-0.70117 -2.12305,-0.92969 z M 440,129.01367 l -0.75781,0.98242 0.28711,0.73242 0.4707,0.24024 0,-1.95508 z M 280.29883,165.06836 280,165.18555 l 0,0.53515 0.13281,-0.0566 0.16602,-0.5957 z m 3.13086,0.65039 -1.5918,1.59375 -1.22266,0.30078 -0.61523,-0.16797 0,14.57031 1.05469,-0.13671 1.25195,-2.17383 1.70508,-1.12891 2.51172,-3.96289 0.9414,-0.11914 1.4668,-0.88281 1.35156,-1.67969 -0.60156,-1.02539 -4.39648,-2.12109 -1.85547,-3.06641 z m 3.13672,0.36523 -0.90235,0.40235 0.73242,0.52734 0.16993,-0.92969 z m -1.44141,16.03711 -1.03516,0.17969 -0.28711,0.80469 1.19532,-0.44336 0.12695,-0.54102 z m -5.125,9.80274 0,12.20117 0.20508,-0.10547 3.62695,-4.15625 1.24024,-2.93945 -0.20118,-0.97852 L 284.57422,194.5 282.71484,193.11133 280,191.92383 Z m 7.08008,6.75586 -0.9707,0.9375 0.54882,-0.0234 0.42188,-0.91406 z m 3.53125,1.50976 -2.73633,0.54297 -3.64062,1.95117 -2.27149,3.79102 -1.96289,1.9668 0,22.41015 0.9707,-0.44531 4.71289,-4.82813 0.59961,-1.41796 2.08399,-1.89454 1.52539,-1.91601 1.28125,-1.60742 2.08594,-3.33008 1.11328,-4.21289 -0.77539,-10.14649 -1.40039,-0.68359 -1.58594,-0.17969 z m 2.86133,24.58008 -1.51172,0.62305 -5.24024,3.98047 -1.70898,0.98828 -2.13867,0.42187 -2.16211,1.66797 -0.71094,0.1582 0,28.41602 -74.19727,0 -0.50585,0.47266 -3.84961,1.80468 -1.9043,0.22852 -1.50781,0.55469 -0.38282,0.72656 0.46485,1.37109 -0.57813,2.00586 -1.11523,1.47071 -0.91797,-0.16797 -0.11524,-1.03711 -0.83007,-0.2168 -1.27149,2.01172 -1.54297,0.94727 0.41797,0.7539 -0.0176,1.77734 -1.44531,1.22266 -1.08594,0.45508 -1.38281,0.58008 -0.80859,-0.40821 -0.90235,0.27735 -0.64843,1.5332 -1.54102,1.24024 -1.12891,4.4375 -2.10546,2.04492 -0.92774,1.62695 0.64649,0.33399 1.74414,-1.50782 0.94531,-0.28515 4.91016,1.23828 0.85742,0.73047 -1.00196,0.875 -1.80078,-0.74024 -1.54687,2.4375 -1.01563,0.77735 -1.42578,0.0664 -1.33008,-0.89258 -0.89062,-0.59961 -1.11524,0.16602 0.44532,1.23047 -0.50196,0.88867 1.49219,1.26563 2.67578,-0.30079 3.07031,0.31055 1.05079,0.99609 0.74609,0.0313 0.79688,0.65234 0.58007,-1.33399 1.51953,-0.41601 1.78125,-0.0254 0.29688,-1.86524 1.39648,-0.2539 1.41211,2.67187 0.77539,1.47071 3.57618,1.68164 1.48437,1.27148 0.79688,0.0273 2.67187,1.29102 1.3457,1.33984 1.22852,0.58985 1.68945,-0.58203 0.97071,0.5332 2.21679,-0.36719 0.80664,0.58008 1.16211,0 0.62696,-0.0898 0.78515,0.0898 16.63672,0 3.83789,-2.62109 3.54688,-3.71485 2.5,-1.82422 1.70898,-2.49023 0.80469,0.41797 0.33203,-1.4375 -0.42383,-2.19336 1.01953,-1.14649 0.26953,-2.19335 0.70118,-0.61915 2.45117,-0.2539 1.64843,-0.16797 2.06641,0.57812 0.25586,-0.27539 1.25391,1.79688 0.54882,3.75586 0.45313,1.42383 0.24219,-0.0312 -1.19727,3.99609 -0.76953,0.82227 -0.98047,3.4414 -1.42967,2.73629 68.47852,0 0,-58.00977 -1.59766,-4.01171 -1.53125,-5.79102 -1.62109,-2.38281 -0.0605,-0.01 -1.42773,-0.2832 -0.77734,0.52539 -1.02149,1.66211 0.75391,5.88672 -0.33594,2.67578 1.87695,13.11133 0.11328,0.80273 -0.59375,4.04688 -2.1582,5.67578 0.23242,1.35742 0.50391,0.41797 -1.67188,1.93164 -0.71484,2.76953 0.76172,1.96094 1.01172,0.8789 0.69336,4.02539 0.0781,0.26368 1.64063,5.5039 0.13281,4.625 0.54297,3.32617 -1.0957,1.2461 -0.45704,-0.53906 -0.90234,-0.97266 -0.26172,-3.88281 -0.1543,-4.67578 -3.29882,-6.8086 -0.11719,-2.33008 -1.74024,-3.08984 -0.8789,-1.55664 0.25,-1.08399 -1.08985,-1.43945 -0.13671,-2.08984 -1.46289,-1.25 -0.43165,-3.37891 0.48633,-2.60351 0.92578,-4.95703 -0.97265,-5.62305 0.66211,-2.42774 -0.41602,-2.67578 -1.63281,-2.42578 0.99609,-2.90039 -0.24414,-1.40625 -1.60547,0.29883 -0.68945,-1.01367 -1.91406,-1.91211 -1.49024,-2.44141 -0.92968,-1.65234 -0.7793,-2.72657 -1.97656,-0.89648 z M 185.5,261.02539 l -0.2832,0.0957 0.0527,0.32813 0.82813,0.5 0.59179,-0.66211 0.0157,-0.26172 -1.20508,0 z m -31.55469,6.87109 -1.20898,0.52344 -0.67578,0.72656 1.29101,0.28321 1.33203,-0.97461 -0.73828,-0.5586 z m 23.95117,1.27344 -0.57812,1.04688 0.79297,-0.0215 -0.21485,-1.02539 z m 8.73243,0.47852 -0.74805,0.30273 0.6543,0.67188 0.46679,-0.50196 -0.37304,-0.47265 z m 3.5039,1.40234 -0.91211,1.14063 0.77735,0.51171 0.40625,-0.25195 0.125,-0.78711 -0.39649,-0.61328 z m -11.19531,14.18945 -2.91211,1.01368 -0.59766,0.9082 0.13086,0.50781 1.28516,-0.33789 2.03516,-1.21875 0.0586,-0.87305 z m -19.85156,1.17969 -0.82617,0.41602 0.0391,0.23437 0.92578,0.19336 -0.13867,-0.84375 z m 24.94922,1.22852 -1.40235,0.54687 -0.31445,0.8125 1.46289,0.16797 0.61133,-0.52148 -0.35742,-1.00586 z m -10.34766,0.39843 -1.75781,0.79102 -2.15235,1.71875 -0.16992,1.70703 0.6875,0.56836 0.66211,-0.19726 -0.19336,-1.50586 1.94922,-1.73633 1.34375,0.0371 0.29297,-0.33203 -0.0859,-0.85157 -0.57617,-0.19922 z m 4.17773,2.875 -0.77343,0.11719 0.11328,0.70313 0.76953,0.17187 -0.10938,-0.99219 z m 819.70313,0.48829 -0.88086,0.24414 -1.92773,3.66797 -2.24024,1.39257 -0.75,3.60938 -0.26367,0.70117 6.02734,0 -0.0215,-0.15234 -0.42969,-2.81836 1.0293,-6.125 -0.54297,-0.51953 z m -828.36133,2.35546 -0.71875,1.06836 -0.88672,0.32618 0.0801,0.80664 2.28906,-0.54102 0.004,-1.20117 -0.76758,-0.45899 z m 16.23047,0.20313 -2.39453,0.21484 0.39062,0.89844 2.29297,0.7168 -0.28906,-1.83008 z m -27.77539,1.60352 -0.93164,0.67382 1.00781,0.0859 -0.0762,-0.75976 z m 22.45117,0.72656 -0.0879,0.6875 2.52149,0.91797 0.0156,-0.53125 -1.05078,-0.9961 -1.39844,-0.0781 z m 10.78711,0.60547 -0.81641,0.16797 0.0352,0.52343 1.55078,0.72852 -0.76953,-1.41992 z m -12.29297,1.73437 -1.14648,1.17969 0.21484,0.73437 1.00391,-1.15625 0.82812,-0.0781 -0.90039,-0.67969 z m -12.6875,0.8125 -0.96484,0.14649 -0.15039,0.59961 0.71875,0.46679 0.50781,-0.22265 -0.11133,-0.99024 z m 8.96485,0.6582 -0.58399,0.91602 1.24024,0 0.0957,-0.54688 -0.75195,-0.36914 z m -111.521489,80.91602 0.05664,0.0605 1.0625,0.20312 1.822266,1.70508 2.59375,-1.89063 2.408203,0.0684 0.34961,-0.14647 -8.292969,0 z m 127.656249,0 1.25391,1.56445 0.84961,0.45117 1.71289,-0.25781 -0.5586,-0.77929 -1.48242,-0.44922 -0.4082,-0.5293 -1.36719,0 z m 8.21289,0 -0.0742,1.68945 -0.51367,2.66797 -1.27734,0.23828 -1.53907,3.58594 -1.56835,1.19336 -2.34766,1.16992 0.68555,1.28516 -0.29688,1.20312 -0.12109,0.49219 0.56445,0.20508 8.04492,-6.81641 -0.98437,1.82617 -0.77539,1.60157 2.35937,0.80273 1.05664,1.18555 -2.80078,0.12695 -0.50391,0.50977 -1.96289,4.60742 0.21875,0.49609 2.15821,-1.13867 0.95703,0.86524 -0.10938,0.54296 -3.71289,0.79297 -0.7539,0.16211 0.0371,0.23438 -3.66602,-2.04102 -1.22461,-1.01562 -0.85547,-1.74219 -0.95898,-0.23828 0.10742,1.94922 5.75,3.88476 -0.18164,1.03516 1.23242,2.02148 0.66992,1.82031 2.15039,-0.51562 0.0391,0.0703 0.36132,0.64063 -1.54296,1.33398 0.0742,3.00781 -0.61718,1.33985 1.1875,0.49414 -0.58008,1.57422 1.95312,3.59179 0.88868,-0.51562 1.06054,0.60937 0.61524,-0.0937 1.27148,-1.8164 1.56445,-0.85742 0.97266,0.67187 2.04688,-2.46094 0.625,-0.0449 -0.30469,1.19531 -0.13867,0.18555 -0.90821,1.21484 0.16797,0.79297 1.28516,0.81641 -1.36328,1.54297 0.0742,0.80273 1.79296,-0.93359 0.64649,0.76562 -0.13672,0.69336 -0.85156,0.12696 -0.27344,0.42383 0.0254,0.14062 16.32422,0 0.30469,-0.94727 1.75195,-1.88476 -0.0254,-0.30664 -0.0957,-1.16211 1.40234,-1.63867 0.56836,-0.084 0.0332,1.53125 -1.14843,3.04102 -0.85547,1.45117 6.71679,0 0.81641,-1.40625 1.23047,-0.17383 1.25,-1.04101 0.86719,0.97851 -0.56836,0.85938 -0.51563,0.7832 1.1211,0 0.75976,-1.4707 0.62305,-0.375 0.60742,-1.47657 0.75,-0.82421 1.21875,0.73632 1.29297,-0.42187 -1.0293,-1.43555 0.17383,-0.45703 1.25976,-0.32227 2.27344,-1.32617 0.97071,-0.99804 1.94335,0.0625 2.30274,-0.4668 0.69726,0.80078 -1.30078,1.39258 -1.22851,3.23828 -1.22461,1.22461 -2.125,0.68164 0.23047,0.58984 2.74023,-0.0976 0.30274,-0.23242 1.17577,1.17763 29.47656,0 0,30.2832 1.3418,0.98633 0.33593,1.05664 -0.79882,0.82422 -0.87891,0.32031 0,1.90039 0.17773,0.0274 1.58204,-1.07617 0.61914,-1.42188 1.94531,-1.2207 1.60156,-0.2168 2.51758,0.52344 0.0332,0.23633 -0.46484,0.22851 -0.79883,0.36914 -2.23437,0.49414 -1.59571,1.31641 -0.94531,1.84961 -0.9668,1.71094 -1.4707,0.1582 0,106.46094 2.56836,0.0976 1.59961,0.0606 2.25,-0.14648 1.31836,-0.41211 0.29687,-0.66016 -1.41601,-2.98438 0.71484,-1.48437 6.04297,-2.74609 0.78711,-0.14649 7.12891,2.28516 0.25976,0.084 0.0469,-0.38867 -1.1875,-1.19336 -3.28907,-1.35742 -2.03906,-1.17969 -1.83594,-2.21289 -0.92382,-1.70312 0.002,-0.87891 0.40039,-0.0781 0.13477,0.0254 0.26562,0.0508 0.11719,-0.56836 0.0937,-0.10156 0.32617,-0.25196 0.68359,0.0215 0.2793,0.004 0.28711,0.0254 0.19336,0.10547 0.85351,-0.69336 0.70508,-1.1582 1.29883,-1.44336 2.32227,-1.54102 1.77343,-0.22265 1.84375,0.72461 1.54102,-0.40625 1.09766,-0.0527 0.5,0.54492 0.96289,0.11915 1.375,0.78711 -0.99414,1.94921 -2.31446,-1.86914 -1.62695,-0.13281 -2.92188,0.89844 -0.71679,0.71289 -0.0312,0.53125 -0.51367,0.44922 -0.0977,0.73047 1.1543,0.91015 1.15625,4.79492 -0.60547,2.76172 0.54492,0.98633 1.24023,0.4668 2.91797,1.83984 3.04883,3.31055 5.1875,3.04297 5.19333,1.43136 0,-188.54883 -120.76758,0 z m 200.76758,0 0,250.32422 4.59766,-0.37695 -0.36328,-1.50196 0.76562,-2.70703 0.60938,0.0273 -0.43555,2.53907 0.45117,1.19336 0.51953,0.51953 1.47461,-0.64258 3.80469,-0.64258 0.22851,-0.0371 2.23243,0.37891 1.74804,-0.23633 2.81055,0.55664 4.42773,-0.0645 3.1875,0.20703 7.01758,2.08008 3.05469,0.25195 1.19531,0.78516 2.67383,1.05476 0,-213.70898 467.39844,0 -1.06055,-0.87109 -1.21484,-0.77735 -0.30664,-0.89453 0.63867,-1.34375 -0.11133,-0.61523 -1.40039,-0.44141 -0.98438,0.87891 -0.93164,-0.92774 -0.34179,-2.22265 -0.48438,-0.27344 -0.31836,-1.17578 0.70313,-0.68164 1.55078,-0.43555 1.10156,-0.8125 0.92774,0.78516 1.77929,-1.74805 1.38086,-0.41211 1.16016,0.39844 -0.043,0.41601 -0.11133,1.10547 1.10352,0.16602 1.03515,-0.92383 1.24219,-0.0762 1.40234,0.49023 1.66797,-0.36523 0.35742,-1.19531 0.98047,-1.20704 0.17774,-4.98437 -1.96875,-0.0527 -0.17969,-1.60937 -0.93164,-0.92774 -1.71484,0.60547 -1.71289,-1.42968 -0.5586,-1.32227 0.57617,-2.04687 2.83594,0.0781 1.38281,-0.55273 2.92969,0.0351 2.04688,1.33203 3.07812,0.17383 1.01758,0.40625 0.31055,1.08399 2.47656,1.37304 2.74219,0.28125 1.85937,-0.65039 -0.0606,-0.61719 -1.09765,0.30469 0.01,0.28711 -1.26562,-0.7832 0,-0.23828 1.09961,-0.35352 1.02929,-1.34765 -0.49218,-0.5586 -0.13282,-1.84765 -0.48046,-0.0859 -0.75,0.96289 -1.11328,-0.35742 -0.99024,-1.5 -3.59766,-1.96875 -0.67382,-2.35742 -1.94532,-0.91016 -2.7832,-4.11719 0.49789,-3.14451 -518.74219,0 z m 522.66602,0 2.02343,4.89062 0.14453,0.34961 1.29297,-0.35742 2.09766,1.42969 1.54883,0.44531 2.05468,1.76172 0.81446,-0.20312 1.26758,0.92578 2.14062,-1.36524 1.45703,0.7793 0.39453,-0.0977 0.65821,-0.1582 1.17968,-1.30273 1.91016,-0.83789 2.54102,-0.37305 1.76953,-0.74024 1.02148,0.64649 0.80664,-0.77149 1.15235,-0.16015 0.60742,-1.09961 1.67383,-0.73828 1.39453,-0.16406 3.07617,-2.85938 -33.02734,0 z m -727.05079,2.07422 -0.51953,1.03711 0.23633,0.58789 0.61719,-0.0918 0.12305,-0.78515 -0.45704,-0.74805 z m -1.91796,0.81445 -0.92188,0.66406 0.88867,0.39649 0.0332,-1.06055 z m 1.45507,4.38867 -1.05273,0.10743 -1.01367,1.30468 1.82226,-0.79883 0.24414,-0.61328 z m 746.18946,1.07813 0.25976,1.03711 0.67188,-0.10547 -0.0117,-0.71289 -0.91992,-0.21875 z m -749.19532,0.23437 -0.95898,0.0957 -0.58594,0.61523 -0.0332,0.72656 0.9043,-0.13867 0.53711,-0.60742 0.13671,-0.69141 z m 733.95508,11.94727 0.51563,1.69922 -0.31836,0.90625 -2.79102,1.85937 0.008,0.33203 1.10352,0.0254 2.18359,-1.0879 1.30274,-2.11132 -0.87695,-0.64844 -0.30664,-0.89258 -0.81836,-0.082 -0.002,0 z m -1.37695,0.69336 -0.74414,1.15234 0.80859,-0.39648 -0.0644,-0.75586 z m -742.50977,3.78125 0.16993,1.07812 0.61132,0.19532 0.18946,-0.65235 -0.97071,-0.62109 z m 14.36328,0.66406 -1.00781,0.38672 -0.31836,0.76953 0.75977,0.51172 0.5664,-1.66797 z m 726.6875,1.51172 -0.48046,0.008 -2.44141,2.375 -1.4668,0.83789 -2.01172,2.69141 -1.68359,3.55469 -1.64062,1.45898 -1.4043,1.88672 0.86328,0 0.37891,-0.50977 2.71484,-2.66601 0.38867,-2.00195 1.49805,-2.49805 2.61133,-2.33203 2.33203,-0.75781 0.88867,-1.0625 -0.54688,-0.98438 z m 15.34961,0.61133 -0.94531,0.63476 0.79883,1.83594 1.76563,-0.50586 0.16015,-1.70898 -1.7793,-0.25586 z m -744.09961,0.53515 -0.008,2.15821 0.76758,-1.3125 -0.75977,-0.84571 z m 711.26758,5.54297 -0.57422,0.0156 0.9961,1.54101 0.0723,1.08985 1.03711,-0.64258 0.0352,-0.61719 -1.56445,-1.38672 -0.002,0 z m -701.13281,1.19336 -0.76758,1.3125 0.82227,-0.3125 -0.0547,-1 z m -7.78711,1.30664 -1.0332,0.20313 1.92773,2.1543 2.24805,0.14453 0.2793,-1.33594 -1.85743,-0.10742 -1.56445,-1.0586 z m 8.95313,1.92578 -0.76563,0.35157 0.11914,0.79687 0.63867,0.38672 0.59375,-0.23242 -0.58593,-1.30274 z m 705.44531,0.66602 -0.76172,1.03125 0.87109,0 0.28711,-0.4707 -0.39648,-0.56055 z m -707.25391,0.4668 -0.55078,0.56445 0.61328,0 -0.0625,-0.56445 z m 97.61328,124.87695 -1.3164,0.45508 -1.53516,1.39258 3.42383,-1.05664 -0.57227,-0.79102 z" id="path6" inkscape:connector-curvature="0"/>
  <path style="fill:#d72828;stroke:#d72828;stroke-width:1.20000005;stroke-miterlimit:4;stroke-dasharray:none;stroke-opacity:1" d="m 396.39648,91.230471 -1.42578,0.0586 -1.62109,1.36914 -1.42578,2.11328 -0.54297,0.1543 -1.58398,1.6543 -1.66602,0.17578 -2.25781,-0.4668 -3.30664,0.55274 -3.27344,3.611319 -0.79492,0.18165 0.0371,0.28515 -1.15821,-0.25586 0.0801,-0.58203 -0.53125,-0.562499 -3.73437,-0.0137 -0.50196,0.869139 1.4336,3.61523 -0.16016,1.54883 -0.86523,2.82227 -0.13086,2.16406 -0.50586,1.29492 -0.87696,2.25391 0.24024,0.68945 0.55078,-0.0606 0.1543,-0.0176 1.32812,1.61914 0.0606,1.66992 1.2793,2.05273 0.58398,2.99414 -0.31641,0.70508 0.28907,1.88086 -0.53711,1.7793 1.92773,3.99219 0.43555,2.6289 2.04101,4.89453 3.18946,7.66602 -0.60547,2.45703 0.78515,1.82422 -1.0625,1.21875 -0.72265,1.89648 0.98242,0.98828 0.59375,2.32422 0.99805,0.70313 0.50781,1.23437 -0.13477,1.35157 1.22852,1.83984 0.48242,1.05469 0.36133,0.79492 0.7832,5.88672 -0.10156,4.5039 -0.78711,1.75782 -0.33008,2.23632 -1.36914,1.53711 -0.80469,3.24219 1.07618,3.41797 -0.0762,1.01172 -0.37304,0.44726 -1.20117,1.44922 -1.43555,7.04102 -4.35938,4.88672 -0.39453,0.85742 0.75977,2.0625 -0.39844,1.62305 1.20899,2.0625 -1.51954,2.27343 0.19336,2.9375 0.0391,1.91602 -0.65039,0.21289 -0.4629,-1.28711 0.082,-4.97656 -0.26758,-0.92774 0.60351,-1.5957 -0.36523,-4.11914 -0.74414,-0.72656 -0.0879,-0.70899 -1.49024,0.12305 -1.90429,1.60156 -2.9336,0.19141 -0.77344,2.19336 -1.71484,0.0723 -0.2793,0.0117 -1.38086,-0.60547 -2.73437,1.75 0.0312,0.23438 1.16992,0.15234 1.17774,0.58008 1.18164,-0.94726 2.47461,-0.23633 1.62695,0.57812 1.1582,1.25391 0.79688,2.3457 1.44336,1.12695 0.0742,0.9961 -2.48633,5.73437 -0.5,1.15235 -0.082,1.73047 -1.68555,1.49804 -0.7832,0.69727 -2.67188,0.21289 -1.30078,-0.80664 -1.19922,-1.96289 -1.89258,-3.08008 0.73438,-1.70899 -0.66406,-0.88085 -1.91797,0.27148 -0.89453,-1.13867 1.26367,-2.63281 0.41406,-6.55079 -2.52734,-1.71484 -2.24219,0.5 -0.50781,1.11328 0.23828,0.45313 0.49218,0.94336 -0.91992,1.01562 0.21875,0.92969 1.0918,0.6875 0.10547,2.75976 -0.69141,0.84375 -0.58789,0.11915 -1.26953,-0.57618 -0.32422,-0.14648 -0.33008,-1.77734 0.72461,-5.63282 0.67578,-2.13476 -0.0625,-3.19532 0.43164,-1.7246 -0.0332,-6.06836 -0.25976,-1.2129 0.73828,-3.24218 0.78906,-1.66992 -0.2168,-0.5 -2.27148,0.3125 -0.75391,-2.30469 -1.39258,-1.03125 -0.95507,0.39844 0.0293,1.38281 -0.88086,0.58203 -1.22656,-1.67188 -1.5,1.99219 -1.08984,0.51172 -2.33399,3.28906 -1.10351,0.45899 -0.66211,0.27734 -0.91602,1.75781 -1.20898,2.32227 -0.91992,0.63476 -1.22461,-0.52148 -0.80469,0.38281 -4.12695,4.4668 -1.33399,0.54297 -4.57422,6.29687 -0.45117,5.22461 -2.04101,5.07032 -0.81055,2.02343 0.043,2.91211 -0.84571,5.22266 0.37696,5.02734 0.92383,2.42188 -0.1211,1.68945 1.88281,6.15625 1.04688,3.43359 1.43555,3.41797 1.00976,2.97852 1.80078,2.69922 -0.35156,0.90429 -0.90625,0.10938 -0.25977,-1.59375 -1.96289,0.57617 -2.8125,-0.94726 -3.74025,-9.39446 0,58.00977 -68.47852,0 -0.26757,0.51172 -1.43946,0.9668 0.37891,2.91796 -0.87695,1.41602 -3.07227,2.24219 -0.93359,1.71093 0.48437,1.60938 0.9375,0.36914 2.04102,0.80274 0.79883,3.77148 -0.61329,1.18555 -0.11132,1.26171 -1.0625,0.81641 -0.68164,0.71875 -0.76563,-1.1875 -7.2793,0.3418 -2.82812,0.52344 -1.43359,0.26562 -1.71094,-1.24609 -3.29102,0.37109 -3.3457,-1.63672 -4.64844,-0.4414 -0.75976,0.83007 -0.4961,-0.0273 -1.72656,-0.99805 -1.125,2.65625 -0.72852,0.0547 -1.25586,-1.45117 -1.53515,0.27148 -0.42383,0.44532 -0.64453,-0.67579 -2.58985,-0.21484 -0.35351,-0.0293 -0.16992,-1.75195 -4.71094,-1.47461 -2.12305,0.31055 -0.89258,-1.64453 -1.71484,-0.56446 -0.63672,-0.91601 -2.18554,0.85156 -0.56055,-0.11133 -0.50977,0.78321 -3.10937,0.0391 -2.15821,1.32617 -2.92187,0.86719 -3.73828,-0.88281 -1.26758,0.0918 -2.37891,-0.69922 -3.0332,2.32813 0.45899,2.29687 -0.6211,0.0801 -1.83789,-1.01758 -0.47656,1.03321 -1.36133,1.35546 0.27344,1.39844 -0.97852,1.87891 0.27539,0.71484 0.23047,0.59961 2.64453,3.89063 0.31446,0.46093 0.61718,2.02149 -0.50195,-0.0684 -1.98047,-3.1582 -2.51562,-1.87305 -1.48047,0.27148 -1.91406,-1.48437 -0.19922,-0.66016 -0.21875,-0.71679 -0.002,-1.53711 -1.46484,-0.83203 0.50781,-0.50977 0.49805,-1.80664 -0.86719,-0.49219 -1.10156,1.41797 -1.20117,-0.10352 -0.75196,0.83594 -0.0547,0.006 -1.20508,0.13672 -0.78906,-0.31055 0.25976,-0.51758 0.94141,-0.29101 1.29687,-1.10938 1.54492,-0.52539 0.4043,-1.45507 1.16602,-1.33008 -0.0371,-0.23242 -1.65821,0.10937 0.50391,-1.75781 1.33399,-0.30078 -1.26758,-0.81446 -0.89453,-1.25586 -1.82422,1.23829 -0.13867,-0.84375 1.08789,-1.22266 -0.19922,-0.92969 -0.95313,-0.38281 -1.17578,0.85156 -0.5918,0.42774 -1.05078,2.03515 -3.44531,1.58594 -0.95898,3.17578 -0.9961,0.24805 -0.45117,-0.93945 -3.25195,1.2246 -0.50781,0.80079 0.25,0.63476 7.64453,0.59375 -0.84375,1.1875 -0.12696,0.0645 -3.27148,1.75586 -1.7793,1.88672 -0.0586,0 -0.99414,-0.82422 -1.20899,0.14258 -0.82812,0.68164 -1.6875,1.39063 -1.18555,0.28125 -0.75195,1.41601 -1.55274,0.14844 -0.31445,-2.5 -0.47851,-0.73633 -0.31446,-0.48437 -1.93164,-1.23242 -2.87109,-0.0781 -0.65821,0.54688 -1.50195,1.24804 -0.48242,0.40039 -1.63672,1.99024 -1.03125,4.72851 0.49219,0.59375 3.1875,0.50586 0.84179,0.92383 0.35743,2.73047 -0.8125,3.39453 -0.58399,0.33594 -0.34961,-0.61719 0.56836,-3.36523 0.15039,-0.88282 -1.07226,-1.41601 -1.66797,0.0234 -1.67383,-1.17383 -2.03516,-0.39844 -0.29101,0.91211 -0.90235,-0.38672 -0.19921,0.5625 1.04297,6.80469 -0.17383,2.47851 -0.54297,0.27735 -0.85742,-1.5918 -1.08399,-0.0195 -0.19726,-1.74805 -0.38282,-0.56445 -1.05664,-1.56055 -0.70312,0.49805 -1.36133,-1.94336 1.49609,-1.92188 0.54688,-2.01171 1.55859,-0.10743 -0.58008,-1.97265 1.11719,-2.72656 2.57422,-2.75196 0.22461,-0.24219 -0.11719,-0.41406 -4.76758,-0.77734 -0.74609,-0.39258 -1.20508,-0.64258 -2.53711,-0.69726 -1.6582,1.5664 -1.15039,1.59961 -0.76367,1.06446 -0.375,1.83984 1.2207,3.4082 -0.0254,2.16797 1.06836,1.94141 -0.92774,4.95898 -0.89453,1.10742 -0.38281,0.0391 -1.21094,0.12304 -1.09375,-0.92773 -0.69336,-0.0312 -2.04882,1.24805 -1.4375,-0.92188 -0.0176,-1.24805 1.32422,-1.17578 -0.59961,-1.77929 -0.82227,-0.49024 -1.00586,0.16211 -0.73437,0.88867 0.77734,1.07813 -0.63281,0.63086 -1.05078,0.17187 -0.69531,-0.60742 0,-0.33984 -0.002,-0.81446 1.29883,-2.18359 -0.55469,-2.36328 -2.00781,-1.06641 -0.14844,0.55274 -1.36523,0.94531 -1.4082,-0.1543 1.5664,4.21875 -2.85742,-0.30078 0.70898,-1.0293 -0.22461,-0.44531 -0.8457,-0.0527 -2.36133,0.87109 -1.964841,0.0332 -0.27539,-0.0742 -2.154297,-0.58203 -1.244141,0.20899 -1.191406,1.35351 -1.841797,4.39453 -1.714844,1.44336 -2.173828,0.50782 -1.388672,-0.63477 -1.076172,0.0371 -1.970703,3.60352 -1.896484,1.52343 -1.101563,-0.39062 -1.599609,0.12695 -0.724609,0.0742 -2.513672,-0.58398 -1.708984,-1.30078 -4.734376,-1.16407 -2.746093,-2.95117 -0.652344,0.20898 1.712891,2.40235 -0.910157,-0.13281 -2.205078,-2.125 0.02734,-0.67774 0.986328,-0.26758 -0.419922,-0.41211 -0.957031,-0.9414 -1.351562,1.24609 -1.265626,-0.45898 -1.164062,0.10547 -2.738281,2.01367 -1.113281,-0.4336 -0.890626,0.25196 -1.117187,1.97461 -1.757813,0.88476 -0.896484,1.8418 -0.90625,0.1582 -1.259766,1.71289 -1.140624,-0.041 -1.566407,0.85351 -1.654297,-0.96484 -0.892578,0.49805 0.917969,5.52148 1.947266,3.6582 1.054687,3.62305 0.595703,0.57031 0.857422,-0.15039 0.318359,-1.21094 1.001954,0.11329 -0.302735,1.83593 2.748047,6.26954 1.169922,1.6582 0.0957,0.13867 1.445313,3.65039 0.06641,1.7207 2.279297,0.42188 1.167969,1.05078 1.27539,0.0195 0.513672,0.68164 1.476562,0.32031 0.792969,0.85352 8.292969,0 2.015625,-0.84375 1.914063,-0.80273 2.84375,1.15234 2.933593,-0.83594 -0.501953,-1.45508 -0.283203,0.0469 1.587891,-2.09766 0.607422,-1.54687 -1.097657,-1.95313 -0.183593,-0.33203 0.253906,-1.05273 3.142578,-3.85352 3.513672,-2.03516 1.435547,-0.48242 1.923828,0.35157 1.169922,0.8164 -4.341797,0.38867 -1.447266,0.67774 0.06445,0.375 4.72461,-0.30469 1.767578,-0.11328 2.519531,0.6875 2.150391,1.57812 1.132812,0.084 2.498183,-0.79532 1.77344,-1.0625 0.47461,-1.23438 -0.0684,-2.39258 1.60156,-1.22656 3.01953,-0.68945 4.75586,0.33203 2.03711,0.14453 6.38672,2.71094 2.05664,0.29297 3.11719,1.37304 3.95312,0.80664 2.75391,-0.20117 2.49023,0.85157 2.2168,-0.78711 0.13086,-0.27344 3.86914,0.21484 1.94726,1.42383 2,-0.0273 6.98633,-1.53125 1.54688,1.39453 1.70703,0.20117 1.08203,0.13086 2.60742,0.69922 2.8086,1.96484 2.72265,1.45117 0.13867,-0.35742 -1.87304,-1.63086 -4.48242,-2.95508 -0.0918,-0.5625 1.29687,-0.4414 1.33204,0.37109 3.8125,-1.21484 0.59765,0.0527 1.03711,0.082 0.95508,0.76563 1.21094,0.24609 0.22851,1.74024 -0.6289,0.95898 1.1914,0.73047 0.78321,-0.59961 1.45117,0.83398 -0.49805,1.46875 -0.79492,0.2168 -3.4082,-1.15625 -0.64649,0.53125 3.12109,2.11133 0.3418,0 0.63281,-0.004 2.55469,-1.73632 3.77539,0.72265 1.29102,-0.48437 -0.0371,-0.23633 -2.47461,-0.82227 -0.0449,-0.28125 4.65234,-4.25976 1.21484,-0.66211 0.78907,0.98437 2.36132,1.03516 0.69922,-0.53711 0.0137,-1.15234 0.34765,-0.69922 0.61524,0.084 0.90039,0.0117 0.37109,-0.11523 0.33008,-0.75586 0.33594,-0.51953 0.23047,-0.0645 0.30468,0.59961 -0.0273,0.5918 -0.52344,0.2832 -0.65039,0.24805 -0.14844,0.57812 0.0527,0.63477 1.89453,0.24414 0.9375,-1.19727 0.23242,-1.95117 1.38867,-1.45703 1.25391,-0.0898 0.40234,0.37304 -1.76562,1.22071 0.22656,0.83007 -1.09375,3.33008 -2.14063,1.61719 -0.49023,0.93555 1.48828,-0.42774 1.64258,-0.4707 -0.13672,1.3125 -1.31836,0.63086 0.50977,1.69922 -1.70703,0.63867 0.0371,0.23633 1.83593,0.82812 1.54883,-1.33593 1.57422,-0.23438 0.57617,0.58399 0.95313,-0.14063 0.67578,-0.67578 0.65039,0.0937 1.70117,1.23633 2.20898,0.72656 0.43946,1.27734 -0.20899,1.18164 -1.88086,0.75977 -0.78515,0.5957 -0.0352,0.7736 120.76758,0 0,188.54883 0.81055,0.22265 0.23047,0.30274 0.77539,1.01172 0.93945,0.36328 1,-0.31445 1.15039,0.14648 2.54297,2.37305 1.73828,1.1289 0.76172,0.0508 0.68359,1.02149 6.625,4.66015 0.62891,-0.26953 -0.60352,-1.125 5.84571,-2.81445 1.90625,-1.85742 1.13281,-3.67969 1.09765,0.10742 0.17383,-1.36133 1.85743,-1.89843 1.19921,-0.36719 -1.91797,4.38281 -0.54296,1.83594 0.17382,0.69922 -1.05859,2.28125 -0.40625,2.20508 -0.49023,0.93554 -1.01368,1.54493 -3.3164,0.63867 -1.27344,-0.42383 -1.1582,0.57227 5.34375,3.48046 2.74218,2.16602 6.0918,5.27344 4.07422,3.53711 1.59375,2.0664 1.37695,0.5586 2.00782,1.58593 3.98828,3.79883 1.31836,1.76367 3.54492,3.66211 0.70898,0.0625 0.75977,-2.05273 0.5918,0.26562 0.83203,0.76758 -0.40039,0.6211 -0.71875,-0.15625 -0.33789,0.75781 0.90039,1.38086 1.60546,1.82812 1.26954,0.90821 1.20703,1.63476 0.48828,-0.24805 -0.77149,-1.92382 2.12696,0.61718 1.01562,1.17969 -0.16797,0.59375 -0.58789,0.21094 -1.3164,-0.0879 0.41015,1.19531 13.31641,11.2832 2.49414,1.47266 1.18945,0.70312 3.41407,0.5293 0.39648,-0.0332 0,-250.32422 518.74219,0 0.0527,-0.32812 -0.49219,-0.46485 -1.44531,0.0762 -0.22851,-1.69922 -1.03516,-0.97656 -1.20313,0.0723 -2.3164,-2.17774 -0.01,-0.47461 -0.26172,-0.89648 1.51172,-1.3125 -0.99414,-1.40234 -0.16992,-1.08594 -2.25586,-1.46875 -0.11719,-0.44141 0.38086,-0.60937 1.20899,0.0215 1.17578,0.73242 1.15625,-0.12109 0.6914,0.65234 0.38086,1.88868 2.90625,2.7832 0.82032,2.51953 1.71484,0.89258 0.68945,2.97461 1.75196,0.8164 0.0117,0.0293 33.02734,0 0.3418,-0.31836 -3.08985,-3.56055 -0.32031,-1.8457 -1.27734,-1.5957 -0.875,-0.46094 1.2539,-3.14844 2.01563,-0.64648 0.89648,-1.29492 1.50391,0.50195 0.61719,-0.86524 1.75195,1.06836 5.05859,-0.77929 1.91211,-1.40039 1.9043,1.54101 1.30469,0.0332 1.14453,-1.1543 -0.11719,-1.61133 -0.73633,-0.9375 -2.02734,0.0703 -0.25586,-0.22461 -1.01563,-0.89843 -1.06445,-0.0801 -0.64258,-1.03516 -1.89844,-0.92578 0,-0.23437 -2.91601,-1.10157 -0.20117,-0.4707 0.58008,-1.04883 1.7246,-0.0742 2.42969,0.77344 1.45117,0.125 1.47071,1.35742 1.02539,0.44531 1.8418,0.80079 1.0625,-0.10743 1.70898,-2.58203 2.49609,-1.49804 1.14649,-1.2461 0.50976,-2.14062 0.66992,-0.66992 -0.49609,-0.94532 -1.21484,-0.36328 0.13281,-1.14258 -2.23438,-0.59179 -1.46679,-1.12305 -0.96875,-0.0332 -2.75,-2.72071 -4.61914,-1.17578 -4.46094,-0.0332 -2.29492,-1.10742 -3.45117,-0.56641 -2.07227,-2.19922 -0.56836,-2.07812 0.47461,-0.81446 0.9707,0.12696 4.75391,3.0625 4.37305,0.41406 4.75,-0.39258 0.57226,-0.67187 1.125,0.55664 0.49219,0.70508 2.63477,1.25 0.9707,0.13086 0.49414,0.65624 1.74805,0.16993 0.30468,-0.23633 0.80078,-0.62891 1.94922,0.78711 5.13086,-0.76562 0.61719,-1.14453 0.36133,-2.80079 -0.0605,-1.23242 -0.58789,-0.56445 -0.52539,0.85937 -3.3125,-0.96484 -2.32812,0.21484 -2.58204,-0.87304 -1.49804,-1.99805 -1.2168,-1.62305 -5.09375,-3.11718 -0.24414,-0.13868 0.27539,-1.23632 -0.88477,-0.60743 -0.4082,-1.51367 -2.11523,-1.58398 -0.17383,-0.25977 -0.86914,-1.29297 -0.7832,-0.27343 -3.44727,0.71093 -1.61523,-0.73632 -2.04688,-0.11329 -4.69922,-1.54296 0,0.18945 -4.59765,0.37695 -0.45899,0.0352 -2.39062,-0.33985 -2.5293,0.23438 -4.99609,-1.57422 -0.0156,-0.35937 -0.0703,-1.58399 1.65625,-0.0312 4.30078,0.73242 3.65039,-0.20312 0,0.18945 1.75586,0.11524 2.88477,-2.18164 1.50195,-0.4961 4.83594,0.5918 0.76367,-1.05469 -1.94336,-2.72266 -0.96485,-1.71093 -0.89062,-1.58399 0.37891,-0.67187 1.15429,0.31445 0.16797,0.0469 1.19141,1.3125 1.32226,0.45507 1.4961,2.01758 1.13086,0.69727 3.56836,0.71093 2.30664,1.0625 3.93554,2.84376 3.46094,4.03906 0.41602,1.79687 0.25586,1.09766 0.0957,0.41797 1.2793,1.12304 1.90429,0.69141 5.98047,-0.25195 0.68359,0.375 1.50782,0.0332 3.3457,-0.93359 3.38867,-1.92578 0.36914,-0.62696 0.30274,-0.51758 -0.0645,-1.84765 -1.68164,-3.16211 1.10938,-1.00977 3.44922,-1.26172 3.09765,-2.63086 0.91407,-1.76171 1.45312,-1.52735 0.45899,-1.27539 0.20898,-0.58008 -0.24805,-0.75586 -1.8164,-1.12695 -1.07422,-0.18164 -0.21875,-3.08398 0.90039,-3.66016 -0.01,-0.0625 -6.02734,0 -0.74024,1.96484 -1.37304,1.7461 -0.31641,0.40429 -0.0879,1.13868 -1.35937,0.86523 -0.0762,-2.98828 -0.59961,-1.22852 -0.63476,-0.13672 -3.07031,0.88282 -0.63477,0.006 -0.1543,-0.70899 2.12549,-1.94562 -584.58398,0 0,-206.908199 -1.73633,-1.03125 -1.86719,-1.85547 z m -23.77929,108.722649 -4.68946,1.39454 -7.36914,0.80078 1.07813,0.97461 7.93945,-1.05469 3.75391,-1.18164 0.29687,-0.0937 0.59375,-0.54102 -1.60351,-0.29883 z m -17.8125,0.37696 0.52929,0.99023 0.74219,0.29688 0.1543,-0.35157 -1.42578,-0.93554 z m 3.58984,0.58593 -1.13867,0.51563 0.0488,0.37695 2.03711,-0.14062 0.0703,-0.25 -1.01758,-0.50196 z m 10.69336,6.41602 -2.03906,0.52148 0.41601,0.52735 1.9668,-0.70508 -0.34375,-0.34375 z m -0.12305,3.4082 -2.23437,0.92578 -1.56641,0.2754 -0.6875,0.50781 -0.90625,-0.0371 -2.38672,0.89844 -0.13867,0.49414 0.50586,0.41992 2.24024,-0.88086 1.27343,0.18555 0.50196,-0.77344 3.35742,-1.15235 0.041,-0.86328 z m -194.66406,90.28516 -0.12695,0.19922 0.0762,1.09375 0.70703,0.0859 0.44922,-0.59571 0.13477,-0.7832 -1.24024,0 z m 39.16992,0 0.19336,0.13867 0.96875,-0.13867 -1.16211,0 z m 2.57422,0 1.99414,0.22852 0.29102,1.35156 0.55664,0.40039 0.83203,0.59961 1.42187,-0.0606 1.09376,0.375 1.0625,-0.48828 5.22851,-0.35742 1.89844,-0.50781 2.25781,-1.54102 -16.63672,0 z m -10.65625,1.57617 -0.33789,0.0488 -0.49023,0.98438 0.75781,-0.20704 0.0703,-0.82617 z m -48.0625,0.27735 -0.35351,1.16015 0.99804,-0.25 -0.10937,-0.65625 -0.53516,-0.2539 z m 26.36328,3.44726 -1.11328,0.45508 0.24414,0.92187 1.55274,-0.18359 0.26367,-0.51758 -0.94727,-0.67578 z m 5.24219,0.6582 -1.48633,1.23047 -2.14843,0.46289 -0.84766,0.5586 0.76172,1.08594 1.05859,-0.49219 3.39453,-0.0723 -0.73242,-2.77344 z m -45.28516,0.22657 -1.2207,0.38476 0.3086,0.67188 0.79882,-0.5586 0.11328,-0.49804 z m -27.55468,0.58007 -0.83399,0.33008 0.3125,0.95899 0.4336,-0.35938 0.0879,-0.92969 z m 45.77734,0.49024 -1.23437,1.53516 1.11132,0.45312 0.39649,-1.21289 -0.27344,-0.77539 z m 34.49414,1.06055 -0.38672,0.0566 0.46094,1.375 0.99414,-0.58008 -1.06836,-0.85156 z m -81.80273,0.18945 -0.97071,0.10742 0.86524,1.01563 0.10547,-1.12305 z m 72.85351,1.28125 -0.86328,0.17383 0.10352,0.65625 0.79882,0.36328 1.64649,-0.19727 0.0449,-0.34179 -1.73047,-0.6543 z m -34.30664,0.4043 -0.0293,1.01562 0.67969,0.22852 0.31446,-0.19141 -0.96485,-1.05273 z m 31.49219,0.54101 -1.56055,0.42383 -0.78515,1.27148 2.12109,-0.3164 0.43359,-1.31445 -0.20898,-0.0645 z m -46.40234,9.28711 -1.09375,1.41992 0.99414,-0.2539 0.0996,-1.16602 z m 13.7539,1.44922 0.0332,1.09961 0.95312,-0.19727 -0.041,-0.85742 -0.94531,-0.0449 z m 845.78321,4.26172 0.008,1.18555 -0.52735,1.04492 0.78516,0.89844 0.5625,-2.70899 -0.82812,-0.41992 z m -14.60743,8.5625 -0.62695,0.19531 -0.37891,1 0.97461,0.3711 0.24024,-0.24024 -0.20899,-1.32617 z m 4.97266,7.02344 0.0606,1.23437 0.58203,0.32617 0.43554,-0.33593 0.13477,-0.94922 -1.21289,-0.27539 z m -5.39844,3.56054 -0.77148,0.24414 -0.17969,1.28321 0.28906,-0.002 0.66211,-1.52539 z m -5.69726,10.6836 -0.18555,0.66601 0.82617,0.41797 0.041,-0.85547 -0.68164,-0.22851 z m -796.83203,14.10547 -0.13086,1.02734 0.99023,0.0898 0.13281,-0.40234 -0.99218,-0.71484 z m 6.26953,1.69336 -0.65235,1.4414 0.59766,-0.23633 0.27148,-0.75976 -0.21679,-0.44531 z m 1.56836,1.92187 -0.75782,1.07422 -0.80664,0.45703 0.043,0.28125 0.94727,0.43359 3.58398,4.47266 1.36719,0 -3.5,-4.54688 -0.50391,-1.98632 -0.37304,-0.18555 z m 200.93359,272.79687 -1.97461,0.4668 -1.66602,0.51367 -2.18164,0.91993 0.0586,1 0.46484,0.42578 0.0879,1.23437 1.25781,4.36133 0.69727,1.31055 -1.24414,0.95703 0.4043,0.0898 0.59375,0.13086 1.36718,-1.11328 0.49414,-2.78711 1.24024,-0.14062 1.0332,-2.08204 1.6211,-1.38281 -0.0332,-0.60547 -0.71484,-1.72851 -0.84961,-0.10547 -2.5,0.51953 -0.0644,-0.28711 0.25195,-0.45898 0.66601,-0.17188 1.08985,0.0391 0.41797,-0.39257 0.71484,0.14648 -1.23242,-0.85938 z m -29.9043,27.8418 -1.40234,1.29102 -0.2832,1.93945 0,2.58399 1.40429,1.29101 1.4043,-1.9375 0.28125,-1.9375 -1.4043,-3.23047 z" id="path8" inkscape:connector-curvature="0"/>
</svg>